<?xml version="1.0" encoding="utf-8"?>
<svg version="1.1" id="Layer_1"
xmlns="http://www.w3.org/2000/svg"
xmlns:xlink="http://www.w3.org/1999/xlink"
width="375px" height="250px"
xml:space="preserve">
<g id="PathID_33" transform="matrix(0.700235, 0, 0, 0.700235, 27.9, 33.45)" opacity="1">
<path style="fill:#92826A;fill-opacity:1" d="M98 68.55Q105.7 55.55 113.95 56.3Q131 57.35 152.6 132.5Q129.1 62.3 112.45 99.9L86.05 159.45Q75.85 182.5 51.1 174.65L88.65 88.15Q94.15 75.55 98 68.55M69.55 18.7Q80.75 -0.9 93.45 0.05Q118.9 2.05 151.9 114.95Q115.75 9 91 65.65L52.15 151.25Q36.95 185.65 0 174.5L55.5 48.2Q63.35 29.15 69.55 18.7M130.8 129.15Q133.7 123.85 137.4 123.95Q144.7 124.5 153.7 156.3Q143.8 126.45 136.85 142.25L125.3 167.55Q120.9 177.9 110.8 174.3L126.95 137.45Q129.3 132.15 130.8 129.15M127.1 122.6L108 165.85Q101.8 179.8 86.2 174.85L112.8 115.45Q115.95 107.7 118.45 103.6Q122.9 95.65 128 96Q138.45 96.8 151.55 142.75Q137.4 99.9 127.1 122.6" />
</g>
<g id="PathID_34" transform="matrix(0.700235, 0, 0, 0.700235, 27.9, 33.45)" opacity="1">
</g>
<g id="PathID_35" transform="matrix(2.23822, 0, 0, 1.9654, 40.2, 225.85)" opacity="1">
<path style="fill:#92826A;fill-opacity:1" d="M12.3 -17.85Q12.2 -19.6 11.6 -21.3Q10.75 -23.8 10.75 -24.7Q10.75 -26 11.35 -26.65Q12 -27.35 12.9 -27.35Q13.7 -27.35 14.25 -26.65Q14.85 -26 14.85 -24.7Q14.85 -23.6 14.15 -21.55Q13.5 -19.55 13.35 -17.85Q14.75 -18.75 15.85 -20Q17.55 -21.95 18.35 -22.45Q19.2 -22.95 20.05 -22.95Q20.85 -22.95 21.4 -22.35Q22 -21.8 22 -21Q22 -20.1 21.15 -19.35Q20.35 -18.65 17.05 -17.9Q15.1 -17.5 13.85 -16.95Q15.15 -16.25 17 -15.9Q20.05 -15.35 21 -14.5Q21.95 -13.7 21.95 -12.75Q21.95 -12 21.35 -11.45Q20.8 -10.9 20.05 -10.9Q19.3 -10.9 18.35 -11.4Q17.45 -11.95 15.9 -13.75Q14.9 -15 13.4 -16.05Q13.4 -14.65 13.95 -12.95Q14.85 -10 14.85 -8.95Q14.85 -7.9 14.25 -7.2Q13.65 -6.55 12.95 -6.55Q12 -6.55 11.25 -7.25Q10.75 -7.8 10.75 -8.95Q10.75 -10.15 11.3 -11.85L12.05 -14.15L12.35 -16.05Q10.85 -15.1 9.75 -13.9Q7.9 -11.85 7 -11.3Q6.35 -10.9 5.65 -10.9Q4.8 -10.9 4.2 -11.45Q3.6 -12.05 3.6 -12.75Q3.6 -13.35 4.1 -14.05Q4.6 -14.75 5.65 -15.2Q6.3 -15.5 8.7 -16Q10.25 -16.3 11.75 -16.95Q10.4 -17.6 8.5 -18Q5.45 -18.65 4.7 -19.15Q3.6 -20 3.6 -21.15Q3.6 -21.85 4.15 -22.4Q4.7 -23 5.45 -23Q6.3 -23 7.2 -22.45Q8.15 -21.9 9.5 -20.3Q10.9 -18.75 12.3 -17.85" />
</g>
<g id="PathID_36" transform="matrix(2.23822, 0, 0, 1.9654, 40.2, 225.85)" opacity="1">
</g>
<g id="PathID_37" transform="matrix(2.23822, 0, 0, 1.9654, 97.5, 225.85)" opacity="1">
<path style="fill:#92826A;fill-opacity:1" d="M12.3 -17.85Q12.2 -19.6 11.6 -21.3Q10.75 -23.8 10.75 -24.7Q10.75 -26 11.35 -26.65Q12 -27.35 12.9 -27.35Q13.7 -27.35 14.25 -26.65Q14.85 -26 14.85 -24.7Q14.85 -23.6 14.15 -21.55Q13.5 -19.55 13.35 -17.85Q14.75 -18.75 15.85 -20Q17.55 -21.95 18.35 -22.45Q19.2 -22.95 20.05 -22.95Q20.85 -22.95 21.4 -22.35Q22 -21.8 22 -21Q22 -20.1 21.15 -19.35Q20.35 -18.65 17.05 -17.9Q15.1 -17.5 13.85 -16.95Q15.15 -16.25 17 -15.9Q20.05 -15.35 21 -14.5Q21.95 -13.7 21.95 -12.75Q21.95 -12 21.35 -11.45Q20.8 -10.9 20.05 -10.9Q19.3 -10.9 18.35 -11.4Q17.45 -11.95 15.9 -13.75Q14.9 -15 13.4 -16.05Q13.4 -14.65 13.95 -12.95Q14.85 -10 14.85 -8.95Q14.85 -7.9 14.25 -7.2Q13.65 -6.55 12.95 -6.55Q12 -6.55 11.25 -7.25Q10.75 -7.8 10.75 -8.95Q10.75 -10.15 11.3 -11.85L12.05 -14.15L12.35 -16.05Q10.85 -15.1 9.75 -13.9Q7.9 -11.85 7 -11.3Q6.35 -10.9 5.65 -10.9Q4.8 -10.9 4.2 -11.45Q3.6 -12.05 3.6 -12.75Q3.6 -13.35 4.1 -14.05Q4.6 -14.75 5.65 -15.2Q6.3 -15.5 8.7 -16Q10.25 -16.3 11.75 -16.95Q10.4 -17.6 8.5 -18Q5.45 -18.65 4.7 -19.15Q3.6 -20 3.6 -21.15Q3.6 -21.85 4.15 -22.4Q4.7 -23 5.45 -23Q6.3 -23 7.2 -22.45Q8.15 -21.9 9.5 -20.3Q10.9 -18.75 12.3 -17.85" />
</g>
<g id="PathID_38" transform="matrix(2.23822, 0, 0, 1.9654, 97.5, 225.85)" opacity="1">
</g>
<g id="PathID_39" transform="matrix(2.23822, 0, 0, 1.9654, 154.8, 225.85)" opacity="1">
<path style="fill:#92826A;fill-opacity:1" d="M12.3 -17.85Q12.2 -19.6 11.6 -21.3Q10.75 -23.8 10.75 -24.7Q10.75 -26 11.35 -26.65Q12 -27.35 12.9 -27.35Q13.7 -27.35 14.25 -26.65Q14.85 -26 14.85 -24.7Q14.85 -23.6 14.15 -21.55Q13.5 -19.55 13.35 -17.85Q14.75 -18.75 15.85 -20Q17.55 -21.95 18.35 -22.45Q19.2 -22.95 20.05 -22.95Q20.85 -22.95 21.4 -22.35Q22 -21.8 22 -21Q22 -20.1 21.15 -19.35Q20.35 -18.65 17.05 -17.9Q15.1 -17.5 13.85 -16.95Q15.15 -16.25 17 -15.9Q20.05 -15.35 21 -14.5Q21.95 -13.7 21.95 -12.75Q21.95 -12 21.35 -11.45Q20.8 -10.9 20.05 -10.9Q19.3 -10.9 18.35 -11.4Q17.45 -11.95 15.9 -13.75Q14.9 -15 13.4 -16.05Q13.4 -14.65 13.95 -12.95Q14.85 -10 14.85 -8.95Q14.85 -7.9 14.25 -7.2Q13.65 -6.55 12.95 -6.55Q12 -6.55 11.25 -7.25Q10.75 -7.8 10.75 -8.95Q10.75 -10.15 11.3 -11.85L12.05 -14.15L12.35 -16.05Q10.85 -15.1 9.75 -13.9Q7.9 -11.85 7 -11.3Q6.35 -10.9 5.65 -10.9Q4.8 -10.9 4.2 -11.45Q3.6 -12.05 3.6 -12.75Q3.6 -13.35 4.1 -14.05Q4.6 -14.75 5.65 -15.2Q6.3 -15.5 8.7 -16Q10.25 -16.3 11.75 -16.95Q10.4 -17.6 8.5 -18Q5.45 -18.65 4.7 -19.15Q3.6 -20 3.6 -21.15Q3.6 -21.85 4.15 -22.4Q4.7 -23 5.45 -23Q6.3 -23 7.2 -22.45Q8.15 -21.9 9.5 -20.3Q10.9 -18.75 12.3 -17.85" />
</g>
<g id="PathID_40" transform="matrix(2.23822, 0, 0, 1.9654, 154.8, 225.85)" opacity="1">
</g>
<g id="PathID_41" transform="matrix(2.23822, 0, 0, 1.9654, 212.1, 225.85)" opacity="1">
<path style="fill:#92826A;fill-opacity:1" d="M12.3 -17.85Q12.2 -19.6 11.6 -21.3Q10.75 -23.8 10.75 -24.7Q10.75 -26 11.35 -26.65Q12 -27.35 12.9 -27.35Q13.7 -27.35 14.25 -26.65Q14.85 -26 14.85 -24.7Q14.85 -23.6 14.15 -21.55Q13.5 -19.55 13.35 -17.85Q14.75 -18.75 15.85 -20Q17.55 -21.95 18.35 -22.45Q19.2 -22.95 20.05 -22.95Q20.85 -22.95 21.4 -22.35Q22 -21.8 22 -21Q22 -20.1 21.15 -19.35Q20.35 -18.65 17.05 -17.9Q15.1 -17.5 13.85 -16.95Q15.15 -16.25 17 -15.9Q20.05 -15.35 21 -14.5Q21.95 -13.7 21.95 -12.75Q21.95 -12 21.35 -11.45Q20.8 -10.9 20.05 -10.9Q19.3 -10.9 18.35 -11.4Q17.45 -11.95 15.9 -13.75Q14.9 -15 13.4 -16.05Q13.4 -14.65 13.95 -12.95Q14.85 -10 14.85 -8.95Q14.85 -7.9 14.25 -7.2Q13.65 -6.55 12.95 -6.55Q12 -6.55 11.25 -7.25Q10.75 -7.8 10.75 -8.95Q10.75 -10.15 11.3 -11.85L12.05 -14.15L12.35 -16.05Q10.85 -15.1 9.75 -13.9Q7.9 -11.85 7 -11.3Q6.35 -10.9 5.65 -10.9Q4.8 -10.9 4.2 -11.45Q3.6 -12.05 3.6 -12.75Q3.6 -13.35 4.1 -14.05Q4.6 -14.75 5.65 -15.2Q6.3 -15.5 8.7 -16Q10.25 -16.3 11.75 -16.95Q10.4 -17.6 8.5 -18Q5.45 -18.65 4.7 -19.15Q3.6 -20 3.6 -21.15Q3.6 -21.85 4.15 -22.4Q4.7 -23 5.45 -23Q6.3 -23 7.2 -22.45Q8.15 -21.9 9.5 -20.3Q10.9 -18.75 12.3 -17.85" />
</g>
<g id="PathID_42" transform="matrix(2.23822, 0, 0, 1.9654, 212.1, 225.85)" opacity="1">
</g>
<g id="PathID_43" transform="matrix(2.23822, 0, 0, 1.9654, 269.4, 225.85)" opacity="1">
<path style="fill:#92826A;fill-opacity:1" d="M12.3 -17.85Q12.2 -19.6 11.6 -21.3Q10.75 -23.8 10.75 -24.7Q10.75 -26 11.35 -26.65Q12 -27.35 12.9 -27.35Q13.7 -27.35 14.25 -26.65Q14.85 -26 14.85 -24.7Q14.85 -23.6 14.15 -21.55Q13.5 -19.55 13.35 -17.85Q14.75 -18.75 15.85 -20Q17.55 -21.95 18.35 -22.45Q19.2 -22.95 20.05 -22.95Q20.85 -22.95 21.4 -22.35Q22 -21.8 22 -21Q22 -20.1 21.15 -19.35Q20.35 -18.65 17.05 -17.9Q15.1 -17.5 13.85 -16.95Q15.15 -16.25 17 -15.9Q20.05 -15.35 21 -14.5Q21.95 -13.7 21.95 -12.75Q21.95 -12 21.35 -11.45Q20.8 -10.9 20.05 -10.9Q19.3 -10.9 18.35 -11.4Q17.45 -11.95 15.9 -13.75Q14.9 -15 13.4 -16.05Q13.4 -14.65 13.95 -12.95Q14.85 -10 14.85 -8.95Q14.85 -7.9 14.25 -7.2Q13.65 -6.55 12.95 -6.55Q12 -6.55 11.25 -7.25Q10.75 -7.8 10.75 -8.95Q10.75 -10.15 11.3 -11.85L12.05 -14.15L12.35 -16.05Q10.85 -15.1 9.75 -13.9Q7.9 -11.85 7 -11.3Q6.35 -10.9 5.65 -10.9Q4.8 -10.9 4.2 -11.45Q3.6 -12.05 3.6 -12.75Q3.6 -13.35 4.1 -14.05Q4.6 -14.75 5.65 -15.2Q6.3 -15.5 8.7 -16Q10.25 -16.3 11.75 -16.95Q10.4 -17.6 8.5 -18Q5.45 -18.65 4.7 -19.15Q3.6 -20 3.6 -21.15Q3.6 -21.85 4.15 -22.4Q4.7 -23 5.45 -23Q6.3 -23 7.2 -22.45Q8.15 -21.9 9.5 -20.3Q10.9 -18.75 12.3 -17.85" />
</g>
<g id="PathID_44" transform="matrix(2.23822, 0, 0, 1.9654, 269.4, 225.85)" opacity="1">
</g>
<g id="PathID_45" transform="matrix(2.68534, 0, 0, 2.35801, 136.95, 157.8)" opacity="1">
<path style="fill:#92826A;fill-opacity:1" d="M12.8 -18.15L12.8 -7.25Q12.8 -3.9 13.3 -3.2Q13.8 -2.5 16.35 -2.35L16.8 -2.35L16.8 0L1.05 0L1.05 -2.35L1.5 -2.35Q4.05 -2.5 4.55 -3.2Q5.05 -3.9 5.05 -7.25L5.05 -29.75Q5.05 -33.05 4.55 -33.7Q4.05 -34.4 1.5 -34.6L1.05 -34.65L1.05 -37L16.8 -37L16.8 -34.65L16.35 -34.6Q13.75 -34.4 13.25 -33.7Q12.8 -33.05 12.8 -29.75L12.8 -20.8L28.1 -20.8L28.1 -29.75Q28.1 -33.05 27.6 -33.7Q27.1 -34.4 24.55 -34.6L24.1 -34.65L24.1 -37L39.85 -37L39.85 -34.65L39.4 -34.6Q36.8 -34.4 36.3 -33.7Q35.85 -33.05 35.85 -29.75L35.85 -7.25Q35.85 -3.9 36.35 -3.2Q36.85 -2.5 39.4 -2.35L39.85 -2.35L39.85 0L24.1 0L24.1 -2.35L24.55 -2.35Q27.1 -2.5 27.6 -3.2Q28.1 -3.9 28.1 -7.25L28.1 -18.15L12.8 -18.15" />
</g>
<g id="PathID_46" transform="matrix(2.68534, 0, 0, 2.35801, 136.95, 157.8)" opacity="1">
</g>
<g id="PathID_47" transform="matrix(2.68534, 0, 0, 2.35801, 246.55, 157.8)" opacity="1">
<path style="fill:#92826A;fill-opacity:1" d="M34.15 -1.45Q28.4 0.9 21.8 0.9Q12.45 0.9 7.2 -4.2Q2 -9.3 2 -18.5Q2 -27.75 7.1 -32.8Q12.2 -37.9 21.5 -37.9Q27.15 -37.9 33.5 -36.25L33.5 -28.6L29.8 -28.6L29.8 -29.05Q29.8 -32.4 28.7 -33.3Q26.2 -35.45 21.6 -35.45Q16.15 -35.45 13.15 -31.05Q10.2 -26.65 10.2 -18.65Q10.2 -10.4 13.5 -6.3Q16.85 -2.2 23.5 -2.2Q28.1 -2.2 34.15 -4.95L34.15 -1.45" />
</g>
<g id="PathID_48" transform="matrix(2.68534, 0, 0, 2.35801, 246.55, 157.8)" opacity="1">
</g>
</svg>
