<?xml version="1.0" encoding="utf-8"?>
<svg version="1.1" id="Layer_1"
xmlns="http://www.w3.org/2000/svg"
xmlns:xlink="http://www.w3.org/1999/xlink"
width="550px" height="400px"
xml:space="preserve">
<filter id="filter3" x="-0.521857" y="-0.521857" width="2.24744" height="2.26278" >
<feComponentTransfer in="SourceGraphic">
	<feFuncR type="linear" slope="0"/>
	<feFuncG type="linear" slope="0"/>
	<feFuncB type="linear" slope="0"/>
</feComponentTransfer>
<feGaussianBlur stdDeviation="0.6 0.6" />
<feOffset dx="7.07116" dy="7.07098"/>
<feComponentTransfer result="1">
	<feFuncR type="linear" Ue="0" intercept="0.352941"/>
	<feFuncG type="linear" Ue="0" intercept="0.266667"/>
	<feFuncB type="linear" Ue="0" intercept="0.12549"/>
	<feFuncA type="linear" xh="0" slope="0.300781"/>
</feComponentTransfer>
<feComposite result="2"  in="SourceGraphic" in2="1" operator="over"/>
</filter>
<g style="filter:url(#filter3);">
<g id="PathID_1" transform="matrix(2.51999, 0, 0, 2.51999, 271.1, 173.65)" opacity="1">
<path style="fill:#A66E0A;fill-opacity:1" d="M20.9 -25.65L20.6 -24.55L21.35 -24.45Q22.35 -24.15 21.85 -24.65Q21.5 -24.8 21.2 -25.1L20.9 -25.65M33.5 -24.8L34.2 -24.05Q34.5 -23.35 33.95 -23Q33.8 -22.45 34.2 -22.75L34.35 -23.15L35.05 -23.5L36.05 -23.15Q36.55 -22.85 37 -22.95Q36.65 -22.7 36.45 -22.1L36.05 -21.2Q35.65 -20.85 35.25 -20.9L34.9 -21.05L34.75 -20.9L34.8 -20.75L35.15 -20.65L35.65 -20L35.5 -19Q35.25 -18.4 35.4 -17.95Q35.05 -18.3 34.45 -18.35Q33.8 -18.45 33.5 -18.7Q33.1 -18.95 33.1 -19.4L33.2 -19.75L33.1 -19.9Q32.95 -20 32.8 -19.75Q33.2 -19.2 32.6 -18.7Q32.3 -18.45 31.65 -18.3L30.7 -17.85Q30.85 -18.3 30.6 -18.85Q30.3 -19.5 30.35 -19.9L30.8 -20.55L31.15 -20.65Q31.4 -20.9 31 -20.95L29.9 -21L29.4 -21.85L28.8 -22.75Q29.25 -22.7 29.8 -23Q30.4 -23.4 30.75 -23.4Q31.5 -23.4 31.6 -22.7Q32 -22.35 32.05 -22.85Q31.45 -23.15 31.7 -23.9L32.25 -24.7Q32.75 -25.15 32.85 -25.6Q33 -25.15 33.5 -24.8M11.4 -20.55Q12.05 -20.2 12.8 -20.1L13.55 -21.2L14.3 -21.55L12.65 -21.15L11.4 -20.55M15.1 -20.25L16.3 -20.65Q14.7 -20.65 13.6 -20.05L15.1 -20.25M2.3 -19.35L2.7 -19.6L3.1 -19.4L3.3 -18.9L3.15 -18.4L2.75 -18.15L2.3 -18.3Q2.15 -18.55 2.15 -18.85L2.3 -19.35M3.85 -18.7L4.1 -18.5L3.8 -18.45Q3.5 -18.5 3.55 -18.6Q3.6 -18.8 3.85 -18.7M4.25 -18.1Q4.25 -18.8 4.95 -18.85Q5.6 -18.85 5.7 -18.2L5.5 -17.65Q5.3 -17.4 5.05 -17.4Q4.35 -17.4 4.25 -18.1M1.8 -13.35L4.45 -14.45L4.95 -14.95L2.65 -13.6L1.8 -13.35M7.65 -16.8L5.7 -17.45L5.95 -17.9L6.9 -17.5L7.95 -16.85L7.65 -16.8M1.65 -8.2L3.45 -5.95Q5.7 -3.85 7.65 -4.65Q7.55 -4 7.1 -3.65Q6.3 -2.95 4.65 -4.15L5.95 -2.65Q7.2 -0.75 6.8 0.95L6.25 -0.55Q5.45 -2.3 4.1 -3.6Q2.75 -4.85 2.1 -6.45Q1.7 -7.4 1.65 -8.2M9.5 -3.2Q9.7 -2.4 8.6 -2.15Q7.25 -2.15 6.55 -2.95L7.9 -2.65Q9.2 -2.55 9.05 -3.85L9.5 -3.2M8.7 -1.35Q8.95 -1.65 9.25 -1.35L9.4 -1.15L9.5 -1.35Q9.75 -1.75 10.5 -2.05Q11.25 -2.35 12.05 -2.05L13.6 -1.15L15.05 -1.1L15.55 -1.5L14.9 -0.65L13.75 0.4Q12.7 1.1 11.6 0.9Q10.5 0.7 9.85 -0.05L9.45 -0.85L9.85 -0.65L10.95 -0.25Q11.7 -0.1 12.3 -0.45L12.55 -0.45L12.85 -0.55Q12.65 -0.4 12.3 -0.45L11.8 -0.5Q11.3 -0.6 10.75 -0.85L9.8 -1.1L9.4 -1.05L9.25 -0.85L8.75 -0.8Q8.4 -1.05 8.7 -1.35M9.25 2.25Q9.15 3.6 8.35 4.05L7.7 4.25L7.5 4.2Q8.05 4.1 8.1 3.55L8.3 2.9L8.45 2.65L8 2.8L7.7 2.8Q8.75 1.75 8.2 0Q8.15 -1 7.4 -1.8L8.25 -0.2Q8.3 -0.15 8.2 0Q9.35 1.1 9.25 2.25M16.5 -9L16.9 -9.45Q17.4 -9.85 18.1 -9.9Q19.5 -9.95 19.75 -9L19.7 -8.1Q19.75 -7.45 20.3 -6.75L21.4 -5.95L21.95 -5.35Q22.25 -4.65 21.6 -3.85Q20.9 -2.95 19.7 -2.95L19.75 -3.8L20.05 -5Q20.4 -5.4 20.2 -5.6L19.7 -5.5Q18.9 -4.55 17.4 -5.65L17.45 -6.5Q17.7 -7.45 18.4 -7.65Q18.85 -7.75 18.65 -8L18.2 -8.1Q17.65 -7.95 17.15 -8.75L16.75 -8.95L16.5 -9M33.1 -22.6L32.2 -22.35Q31.8 -22.05 31.75 -21.55Q31.7 -21.1 32 -20.7Q32.35 -20.3 32.85 -20.25Q33.35 -20.2 33.75 -20.55Q34.2 -20.8 34.2 -21.3L33.95 -22.15L33.1 -22.6M34.65 -14.1L37.2 -14.6Q38.8 -14.9 39.95 -15.65Q39.5 -15.05 38.8 -14.8L41.45 -15.75Q43.45 -16.75 45.1 -18.25L43.5 -18.2Q42.45 -16.75 40.5 -16.05Q41.65 -16.8 42.3 -18.05L41.4 -17.9L38.7 -17.05Q37.3 -15.75 35.35 -14.8L34.65 -14.1M32.65 -14.75Q32 -17.15 28.85 -14.8Q26.95 -13.45 24.8 -10.95Q27 -13.6 27.95 -15.55Q29.8 -19.1 27.3 -19.3L28.9 -19.35Q30.3 -18.95 29.65 -16.6Q31.8 -17.65 32.45 -16.3Q32.75 -15.6 32.65 -14.75M40.2 -12.95L41.25 -12.05Q38.75 -13.7 36.5 -13.6Q38.65 -13.75 40.2 -12.95M26.8 -20.7Q26.05 -18.95 26.1 -17.1Q26.1 -15.25 25.35 -13.6L24.4 -12.1Q24.75 -13.45 24.75 -14.95Q24.75 -18.05 22.9 -18.95L23.95 -19.25Q25.1 -19.1 25.3 -17.05Q25.25 -17.95 25.5 -19.1Q26 -21.3 27.55 -22.15L26.8 -20.7M23.5 -22.65Q22.65 -23.25 23.25 -23.7Q23.8 -24.2 24.2 -23.2L24.45 -22.15L23.5 -22.65M22.7 -21.3Q23.1 -21.95 24.05 -21.3L24.5 -20.7Q24.95 -20 24.9 -19.3L24.2 -20.5Q23.3 -21.45 22.5 -20.5L22.7 -21.3M29.05 -7.6Q31.35 -6.75 31.75 -5.15Q32 -4 31.5 -3.6Q31.7 -4.55 30.7 -4.95L29.65 -5.65L29.3 -6.05Q29.75 -5.45 29.15 -4.7Q27.9 -7.1 24.6 -6.95Q22.85 -7.35 21.05 -6.45L24.3 -7.1Q24.5 -7.15 24.6 -6.95Q27.05 -8.4 29.05 -7.6M4.95 -14.95L6.05 -15.15L5.3 -15.7L5.05 -16.1Q6.95 -16.55 8.8 -15.5L10.35 -14.35Q10.1 -14.65 10.1 -15.2L10.1 -15.6L11.2 -15.45L12.2 -14.75Q12.7 -14.25 12.9 -14.45L13 -14.8L12.6 -15.45Q11.95 -16.15 10.9 -16.1Q9.8 -16.1 8.9 -16.6L8.2 -17.1Q8.95 -17.85 9.65 -17.85L8 -18.2Q7.4 -18.05 7.05 -18.5L5.8 -19.95L5.5 -20.15Q7 -20.75 7.85 -19.9Q7.25 -20.65 7.2 -21.7L7.3 -22.35Q6.4 -23.95 6.75 -25.6Q7.05 -27.25 8.4 -28.5Q9.55 -29.65 11.1 -29.6Q12.7 -29.55 13.6 -28.3Q14.55 -26.95 13.95 -25.55Q13.4 -24.25 12.1 -24.15Q10.9 -24.05 10.2 -24.95Q9.5 -25.85 10.1 -26.5Q10.7 -27.1 11.35 -26.8Q12 -26.5 11.85 -25.85Q11.65 -25 10.9 -25.05L11.3 -24.85L12.45 -24.95Q13.35 -25.5 13.35 -26.65Q13.4 -28.15 12.05 -28.7Q10.55 -29.25 9.05 -27.85Q7.55 -26.4 8.05 -24.4L8.25 -23.8Q8.7 -24.2 9.25 -24.25Q9.9 -24.3 10.2 -23.8L10.35 -23.4Q10.3 -22.6 9.65 -22.55Q9.25 -22.5 9.1 -22.85L9.05 -23.2L8.7 -23.1L8.65 -23.05Q9.3 -21.95 10.6 -21.05L10.65 -21Q12.25 -22.35 14.55 -22.45Q16.45 -22.55 18.15 -21.85L18.7 -22.5Q20 -24.1 20.35 -26.2Q20.75 -28.6 19.75 -30.7Q18.8 -32.75 16.7 -34.05Q14.95 -35.15 13 -35.5Q9.85 -36 6.3 -34.05Q3.85 -32.7 2.3 -30.85L0.9 -29.15L2.5 -29.9Q0.6 -26.4 -0.45 -23L0.2 -22.5Q0.85 -21.75 0.9 -20.8L0.8 -20L0.05 -21.3L-0.8 -21.85L-0.85 -21.65L-0.15 -20.7Q0.2 -20 0.75 -19.8L1 -19.95L1.4 -19.65Q1.45 -19.35 1.1 -19.25Q0.75 -19.1 0.7 -19.5L0.7 -19.7Q0.4 -19.45 -0.6 -19.7L-1.2 -19.95Q-1.95 -16.3 -1.6 -12.65L1.5 -13.25Q0.15 -12.75 -1.6 -12.6L-1.55 -12.2Q0.25 -11.1 1.2 -10.8Q4.1 -9.85 5.7 -11Q6.45 -11.6 6.65 -12.35Q6.95 -10.35 5.6 -9.65L4.25 -9.3L5.3 -8.35L4 -8.2Q5.25 -7.3 7.1 -6.65Q10.25 -5.55 13.9 -5.65L15.35 -5.85Q16.75 -6 16.8 -5.4Q16.95 -4.5 14.1 -4.65L10.1 -5Q5.7 -5.8 3.9 -8.2Q2.5 -8.2 1.75 -9.1L0.45 -10.25L-0.05 -10.45Q0.7 -9.85 0.85 -8.65Q-0.35 -8.95 -1.15 -9.4L-0.55 -7L-0.3 -6.35L1 -3.85L1.7 -1.8L2.05 -1.15Q4.5 3 8.15 6.3Q8.6 5.6 9.6 5.05L9.25 6.8L9.3 7.3L10.2 8L10.55 8.25Q10.2 7.4 10.2 6.55Q10.1 4.9 11.05 3.85Q11.95 2.9 13 3.4L13.25 3.3L14.2 3.15Q13.6 2.9 13 3.4Q12.15 3.45 11.5 4.1Q10.6 5.05 10.7 6.7Q10.75 7.85 11.35 8.85L15.85 11.75L17.05 11.7Q18.6 11.55 19.85 10.95L19.1 11Q18.1 10.95 17.25 10.1L18.3 10.15Q19.6 10.05 21 9.1Q22.8 7.9 23.3 5.65Q23.75 3.2 22.2 0.6Q21.2 -1 19.15 -1.8L17.3 -2.3Q17.15 -2.5 17.15 -2.7L18.05 -2.65Q19.1 -2.5 20.15 -1.95Q23.05 -0.5 24.1 -1.4Q24.65 -1.85 24.6 -2.6Q25.55 -1.65 24.7 -1.05L23.7 -0.6Q25.2 -0.6 25.55 0.05Q25.75 0.35 25.6 0.7L25.45 0.35L23.75 -0.05L22.15 -0.35L23.15 0.95Q24.25 2.8 24.25 4.8Q24.7 7.1 26.15 8.15Q28.2 9.65 30.25 9.45Q32.1 9.25 33.2 7.85Q34.1 6.8 34.25 5.7L34.3 4.9Q34.95 5.65 34.9 6.45L34.75 7.1Q35.4 6.15 35.65 4.85Q36.2 2.25 34.55 0.6Q33.45 -0.55 32.05 -0.75Q30.7 -1 29.85 -0.35Q29.2 0.2 29.05 1.1L28.9 1.85Q28.7 1.85 28.75 0.95Q28.9 -0.05 29.7 -0.7Q30.6 -1.35 32 -1.2Q33.5 -1 34.8 0.25Q36.05 1.5 36.3 3.6Q36.5 5.9 35.15 7.65Q33.65 9.65 31.2 10.1Q28.5 10.6 26.35 8.95Q24.7 7.75 24.15 6.1Q23.9 7.75 22.9 9.2Q21.95 10.6 20.55 11.45Q18.95 12.45 17.2 12.5L18.75 13.25Q20.85 12.85 22.6 10.6Q23.8 9 24.3 7.3Q23.25 11.95 20.95 14.25L21 14.25L22.35 14.8L23.6 10.85Q23.05 13.15 22.85 15L24.35 15.5Q23.75 13.2 24.3 9.95L24.65 13.2Q25.1 15 26.1 16L33.2 17.35L33.4 17.4L33.4 17.35Q33.35 16.4 33.95 15.7Q34.75 14.8 35.3 14.9L35.15 14.65Q34.9 14.25 35.35 14.15L35.6 14.05Q35.15 13.8 35 12.7Q34.85 11.8 35.4 11L36.7 9.55L37.25 8.45Q35.25 10 31.5 10.45L34.35 9.3Q37.1 7.55 36.95 4.9L37.35 5.15Q37.75 5.4 37.75 5.8L37.8 5.4L38.25 4.3Q38.85 3.5 38.2 2.8L38.55 3Q38.95 3.3 39.15 3.95Q39.7 5.4 38.35 7.25L37.5 8.2L37.6 8.3L38.45 9.8Q38.95 11.1 38.45 12.2Q38 13.35 36.95 13.85L36 14.1L37.05 12.6Q37.4 11.95 37.1 11.2L37.2 10.85L37.15 10.4Q37.3 10.85 37.1 11.2L37 11.65L36.3 12.7L35.85 13.7L35.8 14.15L35.75 14.15L35.9 14.35L35.65 14.9L35.4 14.95L35.15 15.35L35.05 16.45L35.1 17.5L35.5 17.5L35.65 16.9L35.65 15.55L35.5 15.1L36.2 15.85Q36.7 16.6 36.7 17.5L41.15 17.05L40.1 16.8L38.15 16.9Q37.2 16.85 36.55 16.2L35.9 15.05L35.9 14.65L36.3 14.9L37.4 15.15L38.65 15.3L39.15 15.5Q39.45 15.6 39.6 15.8L39.4 15.6L39.15 15.5Q38.7 14.85 37.9 14.65L36.6 14.5L36.1 14.55L36.9 14L39.1 13.8Q40.3 14.15 41 15.3L41.65 16.9L41.65 16.95L45.85 15.7Q52.35 13.2 56.05 8.15Q58.7 4.35 58.85 -0.7Q59 -5.4 57 -9.8Q55.1 -14.15 50.75 -16.55Q48.55 -17.75 46.3 -18.1Q45.2 -17.2 43.5 -16.3Q40.5 -14.65 38.15 -14.4L41.25 -14.25Q43.2 -14.1 45.15 -15.1L46.7 -16.15Q46.6 -15.4 46.15 -15.05Q47.35 -15.1 48.35 -16L48.95 -16.6L47.6 -14.8Q45.75 -13.45 41.3 -13.85L34.25 -13.55L33.6 -12.6L33.25 -11.9L33.65 -11.9Q37.25 -12.2 39.1 -10.85L40 -9.9L40.25 -9.5L40.5 -9.9L40.1 -9.9L40.5 -9.95L40.75 -10.4L41.2 -10.85Q41.05 -11.25 41.3 -11.65Q41.6 -12.05 42.15 -12.15Q41.3 -11.85 41.3 -10.95L41.3 -10.9L41.5 -11L42.5 -10.9L42.45 -11.05Q42.55 -11.3 42.75 -11.25L42.9 -11.15L42.85 -11.3L43.1 -12.05L43.85 -12.7L44.95 -12.9Q45.8 -13.1 45.8 -13.7L45.8 -13.15L45.7 -12.2Q45.45 -11.4 44.85 -11.05L43.6 -10.85L43.05 -11.05L43.35 -11.1L44.05 -11.35Q44.55 -11.6 44.75 -12.1L43.7 -11.55L43.1 -11.3L42.95 -11.1L42.95 -10.95L42.65 -10.75L42.5 -10.85L42.25 -10.75L41.8 -10.25L41.4 -9.65L41.5 -9.55L41.9 -9.85L42.5 -10.75Q42.8 -9.85 42.1 -9.15Q42.75 -8.55 42.95 -7.55Q43.25 -6.3 42.55 -5.25Q41.2 -3.05 38.55 -2.45Q38.1 -2.35 37.7 -2.55Q38.1 -2.45 38.5 -2.55Q41.15 -3.15 42.45 -5.3Q43.2 -6.35 42.9 -7.55L42.05 -9.1L42 -9.05Q41.5 -8.55 40.7 -8.55L40.65 -8.55L40.75 -7.75Q40.85 -6.2 39.85 -5.2Q39.05 -4.35 38.1 -4.35Q37.35 -4.25 36.65 -4.7Q36 -5.15 35.95 -5.7L36.05 -6.35L36.2 -6.45Q37.35 -5.3 38.15 -5.55L38.8 -6.1Q37.95 -5.9 37.45 -6.55L37.1 -7.25L38.25 -7.15Q39.35 -7.3 39.2 -8.55L39.15 -8.85Q38.9 -10.3 37.15 -10.9L35.25 -11.15Q36.05 -10.9 36.25 -10.1L36.3 -9.4Q34.95 -10.55 32.8 -10.65Q32.4 -9.35 32.45 -8Q32.55 -5.4 34.1 -3.8Q34.8 -3.05 35.7 -2.8Q35.35 -2.7 35.1 -2.85L35.2 -2.7Q35.7 -2.2 35.7 -1.6Q35.7 -0.65 36 -0.35Q35.9 -0.7 36.3 -1.15L36.7 -1.5Q37.2 -1 37.1 0.6L37.05 2.25L36.6 4.65Q36.65 4.1 36.3 3.6Q36.6 1.15 35.35 -0.2Q33.95 -1.75 32.25 -1.9L30.8 -1.8Q31.9 -3.4 33.3 -3.05Q34 -2.95 34.5 -2.45L34.35 -2.95L34.4 -3.25L34 -3.65Q32.35 -5.35 32.25 -8Q32.2 -9.35 32.6 -10.65Q30.25 -10.75 27.05 -9.7L21.3 -7.15Q25.35 -10.15 29.9 -11.3L33 -11.85L33.4 -12.7L33.9 -13.5L31.5 -12.95L27.95 -11.45L29.55 -12.5Q31.35 -13.35 34.3 -14L34.75 -14.55L31.75 -13.65L35 -15.35Q38.4 -17.5 40.6 -20.45L40.5 -20.55Q40.3 -20.9 40.5 -21.1L40.75 -21.2Q40.3 -21.35 39.95 -22.35Q39.7 -23.15 40.1 -23.9L41.05 -25.4Q41.5 -26.1 41.25 -26.8L40.9 -27.35L41.65 -26.65L42.6 -25.45Q43.25 -24.35 42.95 -23.25Q42.7 -22.2 41.85 -21.65L41 -21.3Q41.45 -21.75 41.8 -22.75L41.8 -24.05L41.55 -24.7L41.65 -24.3Q41.8 -23.65 41.15 -22.55Q40.85 -22.1 40.85 -21.55L40.85 -21.2L41.05 -21.1Q41.3 -20.8 41 -20.55L40.85 -20.4Q40.55 -19.3 39.55 -18.05L39.15 -17.55L41.35 -18.25L42.55 -18.45Q43.05 -19.7 43.05 -20.8L43.7 -21.2Q44.4 -21.9 44.75 -23.35Q45.05 -21.85 44.4 -20L43.75 -18.6L45.45 -18.55Q46.5 -19.65 47.35 -20.9L48 -21.15Q48.4 -21.1 47.55 -19.6L46.6 -18.4Q48.75 -18.05 50.9 -16.9Q55.45 -14.5 57.4 -10Q59.55 -5.55 59.45 -0.7Q59.35 4.5 56.6 8.55Q52.85 13.8 46.15 16.45L41.85 17.8L41.9 18.05L41.8 17.8L36.5 18.5Q36.15 19.35 35.25 20L33.8 20.8L32.65 21.2L33.25 20.8Q33.85 20.25 33.7 19.3L33.55 18.45L33.1 18.4L27.9 17.65L27.05 17.75L27.5 17.95L28.5 18.8Q29.15 19.6 30 19.15Q29.75 19.75 28.55 19.85Q26.9 19.85 25.5 17.95L24.85 16.95L22.75 16.3L22.75 16.85Q22.65 20.8 24.95 19.9Q24.3 20.5 23.6 20.65Q22.1 20.9 21.7 18.55Q20.2 20.45 19.05 19.5L18.2 18.2Q19.8 20.15 21.6 16.55L21.9 16L19.8 15.2L19.65 15.25Q17.3 16.65 15.6 15.9L14.5 15.05L14.3 14.55L14.8 14.9L16.1 14.85Q17 14.3 17.9 14.35L15.3 13.05L13.75 13.1L11.75 12.95Q9.85 12.95 9.2 12.2L9.7 11.8Q10.35 11.4 10.75 11.5Q10.4 11.15 9.25 11Q8.55 10.95 7.95 10.3L7.4 9.3L7.75 9.3L8.4 9.45Q7.9 8.8 7.75 8Q4.45 5.25 2.05 1.9Q2.05 3.7 2.6 5.4L3.25 6.85Q1.8 5.9 1.4 3.7L1.25 1.65L1.2 2.1L1 4.6L0.9 5.3Q0.95 6.4 1.55 7.1Q2.4 8.8 3.85 8.8L3.25 9.2L3.55 9.3L4.15 9.6L5.05 9.65L4.3 10.15Q3.45 10.35 2.45 9.45Q1.55 8.7 1.55 7.1L1.45 7L0.9 5.3Q0.3 9.35 -1.45 13.15L-1.1 13.5Q-0.55 14.25 -1.1 14.8L-1.1 15.1L-0.7 15.15L-0.65 14.7Q-0.45 14.2 0.1 14L1.35 14.1L2.55 14Q2.25 14.45 2.25 15.25L2 16.45Q1.5 17.25 0.75 16.9Q0.35 17.05 0.45 17.25L0.7 17.35L1.15 17.25Q1.65 17.2 2 17.7L2.35 18.85Q2.45 19.6 2.8 20L1.6 20.1L0.35 20.25Q-0.2 20.15 -0.45 19.7L-0.5 19.25L-0.85 19.15L-0.9 19.35Q-0.4 20 -1.1 20.65Q-1.4 21 -2.15 21.2Q-2.9 21.45 -3.25 21.85Q-3.15 21.3 -3.5 20.65L-3.85 19.45Q-3.85 18.85 -3.45 18.55L-3 18.45Q-2.75 18 -3.25 18Q-3.55 18.8 -4.5 18.55L-4.65 18.5L-6.35 20.75L-5.25 21.7Q-3.4 23 -1.2 22.6Q0.45 22.25 1.4 21.45L2.1 20.65Q2.1 21.9 1.45 22.6L0.95 23L3.35 21.7Q5.9 19.75 5.7 16.85Q5.6 15 4.5 13.65Q3.4 12.45 2.1 12.35Q1.1 12.3 0.25 13L-0.5 13.6Q-0.7 13.4 0.1 12.7Q0.95 11.8 2.25 11.9Q3.6 12 4.75 13.2Q6 14.65 6.2 16.8Q6.45 18.95 5 21.05M49.3 -27.75Q50.2 -27.75 50.3 -26.95Q50.8 -26.55 50.65 -27.15L50.35 -27.45Q50.1 -27.85 50.3 -28.4L51.1 -29.25L51.8 -30.25Q51.95 -29.75 52.45 -29.25L53.25 -28.35Q53.55 -27.45 52.85 -27.1Q52.7 -26.65 53.1 -26.8L53.4 -27.15L54.3 -27.35L55.25 -26.7Q55.8 -26.25 56.35 -26.15Q55.85 -26 55.45 -25.35L54.7 -24.45L53.75 -24.4L53.4 -24.7L53.2 -24.6Q53.05 -24.5 53.2 -24.25L53.65 -24.2L54.25 -23.5L54.2 -22.35Q54.05 -21.6 54.25 -21.1L53.1 -21.45L51.95 -21.7Q51.4 -21.95 51.4 -22.5L51.45 -22.9L51.35 -23.05L51.1 -22.85Q51.35 -22.1 50.5 -21.7L49.35 -21.6L48.15 -21.35Q48.4 -21.85 48.3 -22.55Q48.2 -23.35 48.4 -23.75Q48.6 -24.25 49.1 -24.4L49.5 -24.4Q50.1 -24.55 49.55 -24.95L48.25 -25Q47.9 -25.3 47.7 -26L47 -27.05Q47.5 -26.95 48.15 -27.3Q48.85 -27.75 49.3 -27.75M50.1 -24.85Q50.25 -24.25 50.75 -23.95L51.8 -23.85L52.7 -24.55Q53 -25.05 52.85 -25.6Q52.7 -26.15 52.2 -26.45L51.15 -26.6L50.3 -25.9Q50 -25.4 50.1 -24.85M31.95 2.25Q32.1 3.05 31.45 3.25Q31.3 3.6 31.45 3.6L31.6 3.55L31.85 3.25L32.65 3.05L33.45 3.6Q33.95 4.05 34.4 4.1Q33.95 4.25 33.65 4.8L33 5.55L32.2 5.65L31.9 5.4L31.65 5.55L31.7 5.65L32 5.8Q32.35 6.05 32.3 6.55L31.9 7.5Q31.55 8 31.55 8.5L30.75 7.85L29.9 7.3Q29.6 6.9 29.75 6.5L29.9 6.2Q29.85 5.8 29.55 6.05Q29.75 6.7 29 7.1L28 7.2Q27.4 7.15 27.05 7.4L27.15 6.4Q27.05 5.7 27.2 5.4Q27.35 4.9 27.8 4.8L28.15 4.8Q28.5 4.6 28.1 4.5Q27.45 4.8 27.05 4.15Q26.85 3.85 26.8 3.2Q26.75 2.55 26.4 2.2L27.45 2.2L28.45 2.05Q29.2 2.25 29.15 2.95L29.6 2.9L29.4 2.6Q29.25 2.2 29.5 1.8L30.3 1.2L31.05 0.45L31.45 1.4L31.95 2.25M30.55 3.4Q30.05 3.2 29.6 3.4Q29.15 3.6 28.95 4.05Q28.8 4.5 29 4.95L29.65 5.6Q30.2 5.8 30.65 5.6L31.25 4.95L31.2 4.05L30.55 3.4M21.3 6.15Q21.5 6.85 21.95 7.2Q21.4 7.1 20.7 7.5L19.55 7.9Q19 7.9 18.7 7.45L18.5 7L18.3 6.95Q18.15 6.95 18.15 7.25Q18.8 7.8 18.25 8.55L17.25 9.3Q16.55 9.65 16.3 10.1Q16.3 9.55 15.85 8.95L15.3 7.9Q15.2 7.3 15.6 6.95L15.95 6.7Q16.25 6.2 15.65 6.45Q15.35 7.2 14.4 6.95L13.4 6.25Q12.85 5.7 12.3 5.65L13.25 4.8Q13.7 4.1 14.1 3.9Q14.95 3.45 15.4 4.15Q16.05 3.95 15.5 3.6Q14.7 3.6 14.55 2.65Q14.5 2.25 14.8 1.5L14.95 0.2Q15.35 0.6 16.1 0.75Q16.9 0.9 17.2 1.2Q17.95 1.8 17.5 2.55Q17.6 3 17.9 2.65Q17.85 2.4 17.95 2.2Q18.1 1.7 18.7 1.5L19.9 1.6L21.15 1.55Q20.8 2 20.8 2.75L20.55 3.95Q20 4.75 19.25 4.45Q19.05 4.65 19.2 4.8L19.35 4.9L19.75 4.75Q20.3 4.6 20.7 5.05L21.3 6.15M24.75 8.45Q26.65 12.05 28.35 11.9Q29.2 11.85 29.65 11.05Q29.95 12.7 28.7 12.7L27.35 12.4Q28.85 13.5 28.75 14.4L28.35 15.05L28.4 14.65Q28.25 14 27.05 12.95Q25.1 11.4 24.75 9.75L24.75 8.45M29.9 13.15L32.35 13L34.1 13.2Q34.85 13.65 34.45 14.5Q34.05 15.4 33.4 15.1L32.8 14.65Q33.55 14.7 33.75 14.25Q34.05 13.6 33.3 13.4L32.55 13.35Q30.35 13.6 29.25 13.35L28.5 13.05L29.9 13.15M22.3 23.4Q22.9 22.85 23.8 23L25.5 23.4Q26.3 23.55 26.9 23.1L27.3 22.55L26.85 23.55L26.05 24.85Q25.25 25.8 24.15 25.9Q23.05 26 22.25 25.4L21.6 24.75L22.05 24.85L23.25 24.95Q24.05 24.95 24.55 24.35L24.7 24.35L24.9 24.2Q24.8 24.35 24.55 24.35L22.85 24.45L21.85 24.5L21.5 24.65L21.45 24.85Q21.3 25.2 20.95 25.05Q20.55 24.8 20.8 24.5Q21 24.15 21.3 24.35L21.5 24.5L21.5 24.3L22.3 23.4M15.9 5.4Q16.1 6 16.65 6.3L17.7 6.45Q18.3 6.3 18.6 5.75Q18.85 5.2 18.7 4.6Q18.5 3.95 17.95 3.7L16.9 3.55Q16.3 3.7 16 4.25Q15.75 4.75 15.9 5.4M11.05 10.75Q12.2 12.05 14.4 12.55L10.45 10.05L11.05 10.75M8.65 13.2L8.95 14.35Q9 15.2 8.55 15.8Q8.05 16.35 7.9 16.8L7.8 17.15Q8.05 16.8 8.7 16.7L9.35 16.6Q9.45 17.6 8.05 18.9L6.7 20.4L4.4 22.3Q4.9 21.8 5 21.05Q3.35 23.4 0.7 23.9Q7.1 19 7.05 16.85Q7 14.25 5.55 12.75L4.1 11.7Q6.4 11.1 7.45 12.5Q8 13.2 8.05 14.05L8.4 13.5L8.65 13.2M4.5 24.3L4.95 23.9Q5.55 23.5 6.25 23.25Q7 23.1 7.25 22.45L7.35 21.8L7.5 22.25Q7.65 22.85 7.4 23.65Q6.7 25.45 4 26.05Q1.6 26.6 -1.05 24.65Q-1.25 24.8 -1.35 24.75L-4.9 23.6Q-3.1 24.85 -1.05 24.65Q2.7 25.35 4.55 22.75Q5.05 23.7 4.5 24.3M17.95 22.2Q16.9 22.2 15.55 21.4Q13.95 20.5 13.3 18.3L13 18.05L11.4 15.7Q12 17.4 13.3 18.3Q15.4 20.85 17.95 22.2M10.85 15.6L9.4 12.95L10.4 14.15Q11.55 16.05 12.65 19.85Q13.5 22.6 15.85 23.5L18 23.85L18.35 24.3Q19 24.8 20.15 24.95Q19 25.35 17.5 24.95Q14.6 24.3 12.9 21.05L13.9 23.1Q15.65 25.7 18.45 27.2L18.7 27.7Q18.7 28 17.45 27.5Q16.1 26.9 14.55 24.65Q13 22.45 12.6 20.65L12.7 23.05Q12.8 24.55 13.75 26L14.7 27.1L14.05 26.95L13.8 26.75Q13.95 27.7 14.75 28.4L15.2 28.75L13.75 27.95Q12.5 26.6 12.4 23.1Q12.4 21.55 11.75 20.05Q12.1 21.3 11.65 22.3L11.05 23.25Q11.95 21.4 11.7 19.85L11.75 20.05Q11.9 19.75 11.8 19.45Q11.85 19.65 11.7 19.85Q11.75 17.6 10.85 15.6M19.2 28.7Q19.15 28.1 18.9 27.8L19.85 27.8L20.75 27.75Q21.45 27.95 21.35 28.55Q21.55 29 21.75 28.55L21.6 28.25Q21.45 27.9 21.7 27.55L22.45 27L23.15 26.4Q23.15 26.8 23.55 27.25L23.95 28.05Q24.05 28.8 23.4 28.95L23.4 29.25L23.6 29.2L23.8 28.95L24.55 28.85L25.3 29.35Q25.7 29.75 26.1 29.8Q25.75 29.95 25.4 30.45L24.75 31.05L24 31.1L23.75 30.9L23.55 31L23.55 31.15L23.85 31.35Q24.15 31.6 24.1 32L23.65 32.8Q23.35 33.3 23.35 33.7L22.6 33.1L21.85 32.55Q21.6 32.2 21.7 31.85L21.9 31.55Q21.85 31.2 21.6 31.45Q21.7 32.05 21.05 32.3L20.15 32.35L19.25 32.5L19.4 31.6L19.5 30.7Q19.65 30.3 20.05 30.2L20.4 30.2Q20.65 30.05 20.3 29.9Q19.75 30.15 19.35 29.55Q19.2 29.25 19.2 28.7M0.45 32.95Q0.1 33.65 -0.85 33.5Q0.7 31.2 -1 28.3Q-1.5 26.65 -3.05 25.5L-1 28.05Q-0.95 28.15 -1 28.3Q1.45 29.85 1.7 32Q2.05 34.4 0.8 35.5Q-0.05 36.3 -0.7 36.05Q0.25 35.75 0.15 34.7L0.25 33.45L0.45 32.95M8.95 33.25L8.8 32.95L8.7 32.9Q8.6 32.4 8.15 32.1L7.4 31.8L7.1 31.7L7.65 31.5Q8.4 31.4 9 31.85Q9.65 32.25 9.85 33.1L9.9 34.15L9.85 34.9Q9.95 34.05 9.05 33.8L7.85 33.5L7.05 32.8L6.85 32L6.95 31.75L7.1 32L7.75 32.35Q8.55 32.6 8.7 32.9Q8.9 33.05 8.95 33.25M21.75 29Q21.3 29.15 21.15 29.55Q20.95 29.95 21.15 30.4L21.7 31L22.6 31.05L23.2 30.5Q23.4 30.1 23.2 29.65L22.6 29.05L21.75 29M-46.1 -10.9Q-46.6 -11.65 -46.25 -12.25Q-46.7 -11.55 -47.65 -11.15Q-48.25 -10.95 -48.4 -10.35L-48.4 -9.8Q-48.95 -10.2 -48.65 -11.35Q-48.3 -12.95 -46 -13.85Q-44 -14.65 -41.4 -13.25Q-41.35 -13.35 -41.25 -13.3L-38.25 -12.8L-38.2 -12.85L-37.75 -13.3L-37.55 -13.55Q-38 -13.65 -38.85 -14.3Q-40.65 -15.65 -43.05 -18.8Q-43.6 -19.5 -44.25 -19.9Q-43.75 -19.9 -43.45 -19.6L-45.4 -21.35Q-47.9 -23.2 -51.05 -23.55L-51.45 -23.95L-52.3 -23.65Q-52.8 -23.3 -53.1 -23.25Q-53.55 -23.2 -53.8 -23.5L-53.95 -23.8L-54.15 -23.9L-54.35 -23.65L-54.1 -23.45Q-53.85 -23.15 -53.95 -22.7L-54.45 -21.95L-54.9 -21.1L-55.55 -21.8L-56.2 -22.4Q-56.45 -22.8 -56.25 -23.2L-56.05 -23.45L-56.15 -23.7L-56.3 -23.6Q-56.3 -22.95 -57.05 -22.9L-57.95 -23.15L-58.85 -23.3Q-58.5 -23.55 -58.4 -24.1L-58.05 -24.95L-57.4 -25.25L-57.1 -25.15Q-56.7 -25.2 -56.95 -25.4Q-57.6 -25.35 -57.75 -26.05L-57.7 -26.95Q-57.5 -27.5 -57.65 -27.9L-56.8 -27.6L-55.9 -27.35Q-55.3 -26.95 -55.55 -26.4Q-55.4 -26.05 -55.2 -26.45Q-55.6 -26.9 -55.05 -27.4L-54.2 -27.8L-53.45 -28.25L-53.25 -27.35L-53 -26.45Q-53.05 -25.75 -53.65 -25.7L-53.7 -25.55Q-53.7 -25.45 -53.5 -25.45L-53.2 -25.6L-52.5 -25.45L-52 -24.7L-51.45 -24L-50.25 -24.2Q-48.8 -24.1 -46.45 -22.55Q-44.25 -21.1 -43.25 -19.55L-44.25 -21.75Q-44.9 -23.15 -46.3 -24.1L-47.55 -24.85L-46.6 -24.85Q-47.1 -25.65 -48.05 -26.05L-48.9 -26.25L-46.95 -25.95Q-45.3 -25.15 -43.95 -21.95Q-43.55 -20.85 -42.65 -19.9Q-42.65 -19.45 -42.4 -19.05Q-42.55 -19.35 -42.5 -19.65L-42.65 -19.9Q-43.25 -20.85 -43.2 -21.85L-43 -22.9Q-43.2 -21 -42.5 -19.65Q-41.55 -17.25 -39.8 -15.45L-37.55 -13.55L-37.5 -13.55L-37.15 -14.6L-37.2 -15.5Q-36.9 -16.5 -35.55 -16.45Q-34.45 -16.35 -33.95 -15.55L-34.2 -15.45L-34.6 -15.3Q-35.1 -14.45 -35.6 -14.65L-36.1 -14.55Q-36.3 -14.25 -35.85 -14.15Q-35.15 -13.95 -34.9 -13.05L-34.85 -12.2Q-36.3 -11.1 -37.15 -12Q-37.45 -12.35 -37.65 -12.15Q-37.85 -11.95 -37.5 -11.55Q-37.05 -11 -37.1 -9.5Q-38.3 -9.45 -39 -10.35Q-39.7 -11.15 -39.4 -11.85L-38.8 -12.45L-38.25 -12.8Q-39.85 -13.55 -41.4 -13.25Q-44.8 -13.35 -46.1 -10.9M-56.4 -24.95Q-56.45 -24.5 -56.1 -24.15Q-55.8 -23.85 -55.3 -23.8Q-54.85 -23.8 -54.5 -24.1Q-54.2 -24.35 -54.15 -24.85Q-54.1 -25.25 -54.45 -25.6L-55.2 -25.95L-56.05 -25.65L-56.4 -24.95M-46.55 -19.4Q-44.75 -19.1 -43.4 -17.35Q-43.2 -17.35 -43 -17.2Q-41.5 -16.35 -40.65 -15.55Q-41.85 -16.95 -43.4 -17.35Q-46.15 -19 -49.05 -19.3L-46.55 -19.4M-46.65 -17.4Q-42.1 -16.25 -38.05 -13.3Q-40.65 -14.8 -43.8 -15.85Q-50.15 -17.9 -53 -15.5L-52.95 -16.2Q-52.75 -17 -52 -17.25L-53.85 -17Q-55.75 -16.35 -55.95 -14.65Q-56.1 -13.4 -55 -13.25L-53.8 -13.35L-54.15 -12.65Q-54.65 -12 -55.5 -12.2L-54.85 -11.65Q-54.05 -11.4 -52.95 -12.55L-52.8 -12.45L-52.7 -11.8Q-52.75 -11.25 -53.4 -10.8Q-54.05 -10.35 -54.85 -10.45Q-55.75 -10.5 -56.55 -11.3Q-57.55 -12.3 -57.45 -13.85Q-57.35 -15.85 -55.85 -16.95Q-54 -18.3 -50.4 -18L-46.65 -17.4M-55.7 -2.2Q-55.15 -1.45 -55.15 -0.65Q-55.15 -1.1 -54.75 -1.35L-54.35 -1.65Q-54.55 0.95 -51.9 2.55Q-50.75 3.75 -48.9 3.95L-51.75 2.8Q-51.9 2.75 -51.9 2.55Q-54.6 2.4 -55.75 0.75Q-57.1 -1.1 -56.6 -2.55L-55.95 -3.5L-55.6 -3.7L-55.85 -3.25Q-56.05 -2.7 -55.7 -2.2M-51.85 -2.4Q-51.4 -2.45 -50.9 -2.9L-50.1 -3.45Q-49.3 -3.6 -49.05 -2.95Q-48.6 -2.8 -48.85 -3.25Q-49.55 -3.45 -49.4 -4.25L-48.9 -5.1Q-48.5 -5.55 -48.5 -6.05L-47.75 -5.35L-46.95 -4.75Q-46.5 -4.05 -47.05 -3.6Q-46.85 -3.1 -46.55 -3.6L-46.5 -3.95L-45.9 -4.45L-44.85 -4.35L-43.85 -4.3L-44.2 -3.35Q-44.25 -2.7 -44.45 -2.4Q-44.9 -1.75 -45.5 -2.05L-45.65 -1.8L-45.55 -1.7L-45.2 -1.7Q-44.8 -1.6 -44.6 -1.15L-44.6 -0.15L-44.45 0.85L-45.45 0.7L-46.45 0.6L-46.95 -0.05L-46.95 -0.45L-47.25 -0.45L-47.35 -0.35L-47.15 0Q-47 0.4 -47.35 0.8L-48.15 1.35Q-48.75 1.6 -49 2Q-48.95 1.5 -49.3 1L-49.7 0.05L-49.45 -0.7L-49.15 -0.85Q-48.9 -1.15 -49.3 -1.1Q-49.7 -0.6 -50.4 -0.95L-51.1 -1.7Q-51.4 -2.25 -51.85 -2.4M-48 -3.1L-48.65 -2.45Q-48.85 -2.05 -48.7 -1.55L-48.05 -0.9Q-47.6 -0.7 -47.1 -0.9Q-46.6 -1.1 -46.45 -1.55Q-46.2 -2 -46.4 -2.45Q-46.55 -2.95 -47 -3.1Q-47.5 -3.3 -48 -3.1M-14.75 -32.1L-15.2 -31.7L-14.9 -30.4Q-14.75 -28.6 -15.8 -27.35Q-16.6 -26.35 -17.75 -25.95L-17.75 -24.4Q-17.5 -21.25 -14.75 -18.25Q-13.25 -16.6 -11.55 -15.55L-8.85 -15.35L-9.45 -15.85L-6.9 -15.85L-5.35 -14.3L-3.65 -13.45Q-3.95 -17.9 -2.75 -22.5L-3 -22.7L-3.1 -22.6Q-4.6 -20.75 -6.7 -20.65Q-8.4 -20.55 -9.95 -21.55Q-11.25 -22.45 -11.65 -23.95Q-11.95 -25.55 -10.95 -26.7Q-9.85 -27.95 -8.4 -27.7Q-6.95 -27.5 -6.55 -26.25Q-6.2 -25.1 -6.95 -24.2Q-7.6 -23.3 -8.4 -23.75Q-9.1 -24.2 -9 -24.85Q-8.85 -25.6 -8.15 -25.6Q-7.3 -25.6 -7.15 -24.85L-7.05 -25.3Q-6.9 -25.8 -7.45 -26.4Q-8.15 -27.15 -9.3 -26.9Q-10.75 -26.55 -10.95 -25.1Q-11.15 -23.55 -9.45 -22.45Q-7.65 -21.3 -5.85 -22.25Q-4.1 -23.2 -3.15 -25.55Q-2.25 -27.75 -3.5 -30.1Q-4.6 -32.2 -6.55 -33.05Q-8.4 -33.95 -10.55 -33.75Q-12.95 -33.55 -14.75 -32.1M-17.3 -28.35L-17.55 -27.45Q-16.85 -28.4 -16.75 -29.6L-17.3 -28.35M-26.5 -20.4L-25.85 -20.55Q-26.25 -19.2 -27.5 -18.95Q-27.7 -18.2 -28.3 -17.8L-28.9 -17.6Q-29.1 -17.25 -29.35 -17.15Q-28.85 -16.1 -29 -15.3Q-29.75 -15.3 -30.4 -16.1L-30.65 -15.2Q-31.2 -14.25 -32.25 -14.25Q-31.7 -14.9 -31.95 -15.65L-32.55 -15.25Q-33.2 -15 -33.8 -15.75L-33.1 -16.25Q-32.5 -16.9 -33 -17.9Q-33.1 -17.4 -33.4 -17.05Q-34.05 -16.3 -35.05 -16.7Q-33.9 -17.4 -34.35 -18.05Q-34.65 -17.65 -35.1 -17.55Q-36 -17.3 -36.8 -18.35Q-36.85 -19.65 -36 -20.15L-35.1 -20.35Q-35.1 -20.85 -35.75 -20.9L-36.45 -20.9Q-35.9 -21.85 -34.95 -21.7Q-34.45 -21.6 -34.1 -21.3Q-34.35 -22.35 -35.25 -22.55L-36.05 -22.5Q-36.1 -23.4 -35.4 -23.65L-34.7 -23.7L-35.35 -24.45L-35.85 -24.65Q-35 -25.25 -34.05 -24.85Q-33.55 -24.7 -33.25 -24.35L-32.95 -25.5L-32.65 -25.85L-32.2 -25.3Q-31.7 -24.5 -31.7 -23.4Q-31.65 -22.85 -32.2 -22Q-32.75 -21.1 -32.7 -19.9Q-32 -18.95 -31.05 -18.55Q-30.15 -18.2 -29.8 -17.8L-29.5 -17.4L-29.45 -17.4L-28.9 -17.6Q-27.8 -17.8 -27.5 -18.95Q-26.8 -19.45 -26.5 -20.4M-31 -27.7Q-30.2 -27.1 -30 -25.8L-30.85 -26.5Q-32.1 -27.15 -33.85 -27.2Q-36.15 -27.3 -37.9 -25.6Q-39.8 -23.75 -40.05 -20.5Q-40.15 -18.55 -38.9 -16.55L-37.55 -15L-37.6 -14.55Q-38.45 -15.05 -39.25 -16.1Q-40.85 -18.3 -40.7 -21.35Q-40.5 -24.85 -37.8 -27.05Q-35.25 -29.15 -32.05 -29Q-29.1 -28.9 -27.35 -26.5Q-27.4 -26.3 -27.7 -26.1Q-28.6 -27.15 -30.1 -27.65L-31.75 -28.1L-31 -27.7M-26.1 -29.65L-26.5 -29.75Q-26.5 -29.05 -27.1 -29.1L-27.65 -29.5L-27.8 -29.9L-27.65 -30.35Q-27.35 -30.8 -26.75 -30.8Q-25.95 -30.7 -25.25 -29.95Q-24.6 -29.15 -24.65 -28.25Q-24.65 -27.2 -25.3 -26.45Q-24.45 -27.3 -23 -26.7L-24.5 -25.05Q-24.85 -24.55 -25.45 -24.7L-27.1 -24.4L-26.65 -24.3L-25.65 -23.65Q-26.6 -22.6 -28.3 -22.65Q-29.35 -22.7 -30 -22L-30.4 -21.3L-30.35 -21Q-30.15 -20.8 -29.65 -21.3L-28.6 -22L-27.55 -22.1Q-27.4 -21.45 -27.8 -20.9L-26.25 -22.05Q-24.35 -23.1 -22.45 -22.6Q-22.8 -21.9 -23.5 -21.7L-22.4 -21.45Q-21.4 -20.9 -21.8 -19.25Q-21.95 -19.8 -22.4 -20.25Q-23.35 -21.25 -25.15 -20.95Q-28.05 -20 -29.3 -19.7Q-31.45 -19.1 -31.85 -20.65L-31.8 -21.4Q-31.4 -22.35 -29.9 -23.25Q-28 -24.45 -27.7 -26.1Q-27.4 -26 -27.2 -25.75L-26.85 -26.25Q-27.05 -26.5 -27.35 -26.5Q-25.75 -27.3 -25.75 -28.6Q-25.75 -29.35 -26.1 -29.65M-21.3 -25.25L-21.05 -25.2L-21.25 -24.95L-21.55 -25.05L-21.3 -25.25M-22.4 -25.4Q-21.7 -25.35 -21.7 -24.65Q-21.75 -24.35 -21.95 -24.15Q-22.2 -23.9 -22.45 -23.95Q-22.75 -23.95 -22.95 -24.2L-23.1 -24.7L-22.9 -25.2L-22.4 -25.4M-23.4 -24.45Q-23.45 -24.2 -23.15 -24L-24.3 -23.7L-25.1 -23.35L-25.4 -23.4L-24.35 -24.05L-23.4 -24.45M-27.4 -11.55L-31.55 -11.15Q-34.35 -11 -34.25 -11.95Q-34.15 -12.5 -32.75 -12.4L-31.3 -12.2Q-27.25 -12.1 -23.85 -13.5Q-25.1 -12 -27.4 -11.55M-36.1 -5Q-35.2 -4.75 -35.3 -3.9Q-35.05 -3.55 -34.95 -4Q-35.35 -4.75 -34.65 -5.35L-33.5 -5.75Q-32.75 -5.9 -32.35 -6.3Q-32.5 -5.75 -32.25 -5.05L-31.95 -3.85Q-32.1 -2.9 -32.95 -2.95L-33.15 -2.7L-32.85 -2.4L-32.5 -2.7L-31.5 -2.6L-30.65 -1.75Q-30.25 -1.1 -29.75 -0.9Q-30.3 -0.85 -30.8 -0.3L-31.85 0.4L-32.75 0.25L-33.05 -0.1L-33.45 -0.05L-33.4 0.2L-33 0.4Q-32.6 0.75 -32.7 1.35L-33.25 2.4L-33.7 3.6Q-33.95 3.1 -34.7 2.8L-35.65 2.05Q-36 1.55 -35.85 1.1L-35.6 0.7Q-35.6 0.4 -35.75 0.45L-35.9 0.5Q-36 1.35 -37 1.35Q-37.45 1.35 -38.15 0.95Q-38.8 0.6 -39.35 0.65L-38.65 -0.4L-38.1 -1.5Q-37.7 -1.9 -37.2 -1.75L-36.8 -1.6Q-36.3 -1.75 -36.7 -2.1Q-37.45 -1.75 -37.95 -2.55L-38.25 -3.75Q-38.25 -4.5 -38.55 -4.9Q-38.05 -4.75 -37.3 -4.9L-36.1 -5M-36 -0.8L-35.15 -0.1L-34.05 -0.25Q-33.5 -0.55 -33.35 -1.15Q-33.15 -1.75 -33.45 -2.3L-34.3 -3L-35.4 -2.85L-36.1 -1.95Q-36.25 -1.35 -36 -0.8M-24.55 -10.2L-25.05 -11.15Q-23.15 -10.4 -20.9 -12.5Q-19.8 -13.55 -19.05 -14.75Q-19.15 -13.95 -19.55 -13Q-20.2 -11.4 -21.55 -10.1Q-22.9 -8.9 -23.7 -7.1L-24.25 -5.6Q-24.65 -7.3 -23.4 -9.2L-22.05 -10.7Q-23.7 -9.45 -24.55 -10.2M-26.9 -9.7L-26.5 -10.4Q-26.65 -9.1 -25.35 -9.2L-23.95 -9.45Q-24.65 -8.65 -26 -8.7Q-27.15 -8.95 -26.9 -9.7M-25.5 -2.95Q-25.45 -2.4 -24.9 -2.35Q-25.2 -2.15 -25.8 -2.5Q-26.55 -2.95 -26.65 -4.25Q-26.75 -5.5 -25.65 -6.6Q-25.7 -6.7 -25.65 -6.7L-24.85 -8.35Q-25.6 -7.6 -25.65 -6.6Q-26.25 -4.9 -25.15 -3.75L-25.9 -3.9L-25.7 -3.65L-25.5 -2.95M-2.6 -23.2L-2.55 -23.35L-2.65 -23.2L-2.6 -23.2M-10.6 -8.85L-10.45 -7Q-10.4 -6.35 -10.85 -6.05Q-11.55 -5.65 -11.85 -4.7L-11.5 -4.9L-10.3 -5.15Q-10.25 -3.75 -11.5 -2.55Q-12.3 -1.85 -12.3 -0.95Q-12.3 -0.45 -12.1 -0.2L-11.8 0Q-11.5 0.05 -11.5 -0.7L-11.3 -1.9L-10.6 -2.75L-10.35 -2.45L-9.95 -1.65L-9.65 -3.55Q-9 -5.65 -7.35 -6.6Q-7.05 -5.9 -7.4 -5.25L-6.45 -5.85Q-5.35 -6.2 -4.5 -4.7L-5.65 -5Q-7.05 -5 -8.1 -3.6L-10.2 0.2Q-11.35 2.15 -12.7 1.35L-13.15 0.7Q-13.5 -0.25 -13.1 -1.9Q-12.55 -4.1 -13.5 -5.5Q-13.2 -5.65 -12.9 -5.6L-12.95 -6.2Q-13.25 -6.25 -13.55 -6Q-12.9 -7.7 -13.85 -8.65Q-14.4 -9.2 -14.8 -9.1L-15.15 -8.95Q-14.65 -8.45 -15.15 -8L-15.85 -7.95L-16.2 -8.15L-16.4 -8.6Q-16.5 -9.1 -16.05 -9.55Q-15.4 -10.05 -14.4 -9.95Q-13.35 -9.85 -12.8 -9.2Q-12.15 -8.45 -12 -7.4Q-12 -8.55 -10.5 -9.2L-10.6 -8.85M-16.3 -4.95L-17.8 -4.1L-17 -4.35Q-15.95 -4.45 -14.9 -3.7L-16 -3.6Q-17.4 -3.2 -18.7 -2.05Q-20.35 -0.45 -20.45 1.95Q-20.55 4.6 -18.45 7.1Q-17.15 8.6 -14.9 9.1L-12.85 9.3L-12.7 9.45L-12.55 9.7Q-13.45 9.95 -14.8 9.7Q-17.5 9.25 -19.5 6.95Q-21.8 4.25 -21.4 0.85Q-21.05 -2.4 -18.6 -4.55Q-16.4 -6.5 -13.55 -6Q-13.45 -5.85 -13.5 -5.5Q-14.85 -5.65 -16.3 -4.95M-8.65 -2.2L-8.3 -2.8Q-7.65 -1.65 -8.4 -0.6Q-8 0.15 -8.15 0.85Q-8.3 1.25 -8.5 1.5Q-8.35 1.9 -8.5 2.1Q-7.35 2.5 -6.95 3.2Q-7.45 3.7 -8.5 3.6L-8.05 4.45Q-7.75 5.45 -8.5 6.2Q-8.6 5.35 -9.3 5L-9.45 5.65Q-9.75 6.3 -10.65 6.2L-10.5 5.4Q-10.6 4.5 -11.6 4.1L-11.3 4.95Q-11.25 5.9 -12.25 6.35Q-11.9 5.05 -12.7 4.95Q-12.65 5.4 -12.9 5.8Q-13.35 6.65 -14.65 6.4Q-15.6 5.55 -15.3 4.6L-14.75 3.8L-15.7 3.85L-16.2 4.3Q-16.45 3.25 -15.65 2.7L-14.75 2.4L-16.45 2.3L-17 2.95Q-17.65 2.25 -17.35 1.6L-16.85 1.1L-17.85 1.05L-18.3 1.25Q-18.15 0.2 -17.2 -0.2L-16.25 -0.4L-16.85 -1.4L-16.85 -1.9L-16.15 -1.8Q-15.25 -1.55 -14.45 -0.8Q-14.1 -0.45 -13.85 0.6Q-13.65 1.6 -12.8 2.4L-10.7 2.25L-9.25 1.9L-8.75 2L-8.7 1.95Q-8.55 1.8 -8.5 1.5Q-7.75 0.55 -8.4 -0.6Q-8.25 -1.45 -8.65 -2.2M-7.1 -9.7Q-7.55 -9.3 -8.05 -9.85L-8.25 -10.35L-8.1 -10.8L-7.6 -10.9L-7.15 -10.65L-6.95 -10.1Q-6.95 -9.85 -7.1 -9.7M-8.05 -9.45Q-7.9 -9.4 -8.05 -9.2Q-8.15 -8.95 -8.3 -9.05L-8.3 -9.3L-8.05 -9.45M-8.2 -8.6L-8 -8.05Q-8 -7.75 -8.25 -7.6L-9.25 -7.65Q-9.7 -8.25 -9.15 -8.65L-8.65 -8.85L-8.2 -8.6M-9.25 -7.25L-8.8 -7.1L-9.4 -6.15L-9.7 -5.3L-9.95 -5.15L-9.65 -6.35L-9.25 -7.25M-8.9 9.45Q-9.25 11.25 -10.45 11.2Q-10.95 11.15 -10.95 11.45Q-10.95 11.8 -10.4 11.8Q-9.7 11.9 -8.7 12.95Q-9.55 13.85 -10.65 13.7Q-11.7 13.6 -12 12.9L-12 12.05Q-11.75 11.4 -11.8 10.7Q-11.85 9.85 -12.3 9.3L-12.95 8.7Q-13.45 7.9 -12.4 6.95Q-11.6 6.2 -10.6 6.45L-10.8 6.7L-10.95 7.1Q-10.75 8 -11.2 8.25L-11.5 8.65Q-11.45 9 -11 8.75L-9.55 8.9L-8.9 9.45M-17.75 17.5L-17.75 18Q-17.75 18.65 -18.05 19.25Q-18.4 20.2 -17.6 20.8Q-18.3 20.8 -18.9 19.8Q-19.7 18.4 -18.7 16.2Q-17.8 14.25 -15 13.5Q-15.05 13.3 -14.9 13.2Q-13.6 12.05 -12.15 11.4Q-14.05 12.05 -15 13.5Q-17.5 15.75 -16.75 18.35Q-17.65 18.2 -17.75 17.5M-11.4 24.45L-12.05 25.15L-11.15 24.4L-11.4 24.45M-2.75 17.7L-1.85 18.45L-0.75 18.35Q-0.25 18.1 -0.05 17.5Q0.1 16.9 -0.2 16.35Q-0.45 15.8 -1.1 15.6L-2.15 15.7Q-2.7 16 -2.9 16.6Q-3.05 17.15 -2.75 17.7M-9.1 24.2Q-8.75 24 -8.3 24.2L-7.6 24.9L-6.75 25.55Q-7.2 25.6 -7.6 26.1L-8.4 26.7L-9.2 26.65L-9.45 26.35Q-9.7 26.35 -9.7 26.5L-9.7 26.7L-9.3 26.8Q-8.95 27 -8.9 27.5L-9.1 28.45L-9.25 29.5Q-9.55 29.1 -10.2 29L-11.1 28.65L-11.45 27.9L-11.35 27.55L-11.4 27.4Q-11.5 27.3 -11.65 27.5Q-11.55 28.2 -12.3 28.35L-13.35 28.3L-14.4 28.35L-14.05 27.65L-15.3 28.45L-15.8 28.75L-14.7 29.7Q-13.6 30.45 -12.6 30.7L-13.1 30.35Q-13.65 29.8 -13.75 28.8L-13.1 29.4Q-12.25 30.05 -10.85 30.15Q-9.1 30.4 -7.65 29.25Q-6.05 27.95 -5.65 25.5Q-5.35 23.7 -6.55 21.75L-6.9 21.4L-9 23.65Q-9.1 24.05 -9.55 24.15Q-9.7 24.55 -9.35 24.45L-9.1 24.2M-18.7 13.25Q-24.7 16.2 -25.05 19.95L-25.55 19.4Q-26 18.7 -25.6 17.95L-26.7 19.45Q-27.65 21.25 -26.6 22.6Q-25.85 23.55 -24.95 22.9L-24.2 22.05L-23.95 22.75Q-23.85 23.6 -24.65 24.05L-23.8 24Q-23 23.6 -23 21.95L-22.85 21.95Q-22.6 22 -22.3 22.35Q-21.95 22.8 -22.1 23.55Q-22.3 24.3 -22.85 24.8Q-23.55 25.45 -24.75 25.4Q-26.15 25.35 -27.15 24.15Q-28.45 22.75 -28.15 20.85Q-27.7 18.65 -24.95 16.35Q-23.9 15.3 -21.85 14.15Q-17.8 11.8 -12.8 11.1Q-15.7 11.8 -18.7 13.25M-22.8 5.5L-22.15 5.8L-21.9 6.55L-22.2 7.1L-22.85 7.35L-23.45 6.95L-23.7 6.3L-23.45 5.65Q-23.2 5.4 -22.8 5.5M-28.2 10.45L-27.75 10.5L-28.15 10.5Q-29.2 10.5 -29.65 11.4Q-30 12 -29.95 12.7Q-29.25 10.5 -28.2 10.45M-29.95 12.7L-29.65 12.65L-29.9 13.05L-29.9 13.2L-29.45 14.25L-30 13.2L-30.1 13.5L-30.4 14.35Q-30.9 14.9 -31.4 14.55L-31.6 14.6Q-31.8 14.7 -31.6 14.95L-31.25 14.9Q-30.85 14.9 -30.65 15.3L-30.45 16.2L-30.2 17.15L-31.15 17.1L-32.1 17.15L-32.6 16.6L-32.6 16.25Q-32.8 16 -32.9 16.15L-32.95 16.35L-32.8 16.6Q-32.7 17 -33 17.35L-33.8 17.8Q-34.3 18 -34.6 18.3Q-34.55 17.9 -34.85 17.45L-35.15 16.6Q-35.2 16.15 -34.85 15.9L-34.55 15.75L-34.55 15.55L-34.7 15.5L-35.7 15.6L-36.25 14.9L-36.9 14.2L-36.05 13.8Q-35.6 13.4 -35.25 13.35Q-34.55 13.2 -34.35 13.8Q-34.05 13.9 -34.1 13.55Q-34.7 13.45 -34.7 12.7L-34.4 11.85Q-34.05 11.4 -34.1 11Q-33.9 11.35 -33.35 11.55Q-32.75 11.7 -32.55 11.95Q-32.1 12.5 -32.5 12.95Q-32.5 13.3 -32.25 13.1L-32.1 12.75Q-31.95 12.4 -31.5 12.35L-30.6 12.55L-30.05 12.7Q-30.05 12 -29.65 11.4M-22.25 7.45Q-21 9.05 -19.5 9.5L-19.75 9.45Q-21 9.2 -21.65 8.4L-22.25 7.45M0.7 23.9Q-0.9 24.3 -2.55 23.9Q-4.25 23.6 -5.6 22.6Q-4.85 24.3 -5.2 26.2Q-5.6 28.9 -7.85 30.4Q-9.9 31.75 -12.4 31.4Q-14.6 31.05 -16.05 29.25L-16.25 29L-16.55 29.15L-15.55 30.25L-16.9 29.35Q-20.6 31.1 -24.65 31.3Q-30 31.6 -34.2 29.05Q-37.35 27.05 -39 23.4Q-40.55 20 -40.5 16.15L-40.35 14.15L-41 14.15L-42.4 13.35Q-40.05 14.3 -40.1 10.35Q-40.2 7.9 -41 4.35Q-40.1 7.9 -39 10.05L-38.95 10.2L-38.25 9.1L-37.65 8.3Q-39.45 7 -39.9 4.15L-40 4.1L-41.75 0.75Q-41.3 2.85 -39.9 4.15Q-38.2 6.5 -35.95 6.75L-34.75 5.95Q-36.45 5.85 -37.95 4.9Q-39.35 4.05 -40.3 2.65Q-41.3 1.2 -41.6 -0.45Q-42.2 1.25 -43.75 2.4Q-45.9 4.1 -48.6 3.6Q-51.05 3.15 -52.55 1.15Q-53.95 -0.6 -53.75 -2.9Q-54.05 -2.45 -54 -1.85L-54.45 -4.25L-54.5 -5.95Q-54.65 -7.5 -54.1 -8L-53.75 -7.65Q-53.35 -7.2 -53.4 -6.85Q-53.15 -7.15 -53.1 -8.1Q-53.1 -8.7 -52.6 -9.2L-51.85 -9.75L-51.8 -9.45L-51.9 -8.95L-50.75 -9.6Q-49.3 -9.9 -48.2 -8.3L-49.65 -8.4Q-51.4 -8.25 -52.8 -6.7Q-54 -5.45 -53.7 -3.05Q-53.5 -5.05 -52.25 -6.25Q-50.95 -7.5 -49.4 -7.7Q-48 -7.9 -47.1 -7.2Q-46.35 -6.65 -46.65 -5.75Q-46.5 -5.65 -46.45 -5.45L-46.3 -4.7Q-46.1 -5.35 -46.65 -5.75Q-46.8 -6.45 -47.3 -6.85Q-48.15 -7.5 -49.45 -7.25Q-50.85 -7.05 -51.95 -5.95Q-53.6 -4.25 -53.05 -1.65Q-52.75 -0.35 -52.15 0.6L-52.3 -0.05Q-52.35 -0.85 -51.7 -1.65L-51.7 -0.8Q-51.5 0.3 -50.6 1.35Q-49.5 2.75 -47.65 2.95Q-45.6 3.15 -43.6 1.6Q-42.05 0.5 -41.7 -1.7Q-41.6 -3.85 -40.55 -5.6L-39.6 -6.85L-41.2 -6.6L-42.9 -6.2L-43.05 -5.85L-43 -6.45Q-42.65 -7.1 -41.15 -7.1Q-41.75 -7.25 -42.15 -7.55Q-43 -8.15 -42 -9.1L-41.55 -7.9Q-40.5 -7.05 -37.55 -8.5L-37.55 -8.45Q-35.95 -9.3 -34.6 -9.2L-34.75 -8.8L-36.6 -8.3Q-38.65 -7.5 -39.6 -5.9Q-41.15 -3.3 -40.7 -0.85Q-40.2 1.4 -38.4 2.55Q-37 3.5 -35.7 3.6L-34.7 3.55Q-35.55 4.4 -36.5 4.5L-37.3 4.35L-34.45 5.15Q-31.3 5.5 -29.45 3.3Q-28.2 1.9 -28.1 0.15Q-28 -1.5 -28.9 -2.4Q-29.65 -3.2 -30.7 -3.25L-31.65 -3.35L-30.6 -3.6Q-29.35 -3.65 -28.5 -2.7Q-27.55 -1.65 -27.6 0.05Q-27.65 1.9 -29 3.6L-30.3 4.8L-29.1 4.85L-28.45 4.25Q-26.75 2.35 -26.7 0.25L-27 -1.5Q-24.95 -0.35 -25.2 1.4Q-25.3 2.25 -25.8 2.95L-25.15 2.75L-24.8 2.75L-25.35 3.75L-26.65 4.5L-27.8 4.75L-28.15 5Q-27.75 4.85 -27.15 5.25L-27.1 5.3Q-26 5.7 -25.05 6.45Q-23.95 7.35 -23.3 8.5L-22.7 8.75Q-21.3 9.4 -19.75 9.45Q-19.5 9.75 -19.1 9.8Q-19.35 9.75 -19.5 9.5Q-17.4 10.45 -15.2 10.5L-12.2 10.3L-13.7 10.7L-19.85 10.35L-22.5 10.5Q-22.35 11.45 -22.5 12.35L-22.45 12.3Q-21.05 11.35 -19 11.65L-18.4 11.4L-15.55 11Q-17.5 10.8 -19 11.65Q-21.1 12.2 -22.75 13.2Q-22.8 13.3 -22.9 13.3M-23.05 9L-22.85 9.4L-22.7 9.8L-20.5 9.95L-22.8 9.05L-23.05 9M-20.75 10.1L-22.6 10.1L-22.55 10.3L-20.75 10.1M-32.25 13.95Q-32.5 13.6 -33 13.6L-33.8 13.85Q-34.2 14.15 -34.2 14.65L-33.95 15.45Q-33.65 15.8 -33.2 15.8L-32.35 15.5Q-32 15.2 -31.95 14.75Q-31.95 14.25 -32.25 13.95M-4.4 24.75L-3.45 25.7Q-2.6 27.1 -2.85 29.55Q-3.05 31.05 -2.7 31.7L-2.4 32Q-2.8 32.05 -3.1 31.75Q-3.8 31.2 -3.55 29.4L-4.25 30.55Q-5.2 31.4 -6.15 30.05Q-5.25 30.25 -4.6 29.7Q-3.3 28.6 -4.4 24.75M-9.85 25.15L-10.15 24.7L-12.05 26.25L-11.5 26.75Q-11.05 26.95 -10.6 26.75Q-10.1 26.6 -9.9 26.1Q-9.7 25.65 -9.85 25.15M-5.95 35.5Q-6.25 36.15 -7.1 35.8Q-8 35.5 -7.8 34.65Q-7.65 33.85 -6.7 33.3Q-5.45 32.5 -3.9 30.65L-4.2 31.35L-6.6 33.7L-7.1 34.25Q-7.45 34.9 -6.8 35.15Q-6.35 35.35 -5.9 34.8L-5.95 35.5M-17.95 30.05L-17.85 30.55Q-17.6 31.05 -17 31.15Q-16.05 31.35 -15.55 31.85L-15.75 31.1L-15.6 30.65Q-13.95 32.6 -11.05 31.9Q-9.4 31.95 -7.85 30.8Q-9.1 31.6 -10.7 32Q-10.9 32.05 -11.05 31.9Q-13.05 33.65 -15 33.3Q-17.25 32.95 -17.9 31.55L-18.1 30.4L-17.95 30.05M-42.15 3.25Q-42.55 4.9 -44.45 6.45Q-45.6 7.45 -45.8 8.1L-45.8 8.55L-46.15 7.9Q-46.25 7 -44.75 5.9L-46.1 6.2Q-47.35 6.2 -47.1 4.55L-46.75 4.95L-45.8 5.4Q-44.05 5.55 -42.2 1.95L-42.15 3.25M-45.9 6.55L-46.65 6.85Q-47.8 7.1 -49.95 6.85L-50.75 6.9Q-51.5 7.1 -51.15 7.75Q-50.95 8.2 -50.25 8.15L-50.8 8.6Q-51.45 8.9 -51.85 8Q-52.25 7.15 -51.5 6.7Q-50.85 6.3 -49.75 6.45L-45.9 6.55M-45.35 11.05L-45.7 10.75Q-43 10.15 -42.25 6.9Q-41.45 5.4 -41.75 3.45L-42.05 6.7Q-42.1 6.85 -42.25 6.9Q-41.6 9.7 -42.85 11.4Q-44.3 13.35 -45.95 13.3L-47.1 12.95L-47.4 12.65Q-46.55 13.1 -45.9 12.3Q-45.5 11.8 -44.9 11.45L-44.45 11.25L-45.35 11.05M44.1 -9.2L43.75 -10.1L43.2 -10.65L42.95 -10.75L43.5 -10.75Q44.15 -10.65 44.6 -10.1Q45.2 -9.3 44.7 -7.8L44.4 -7.15Q44.75 -7.9 44 -8.35L43.1 -9Q42.65 -9.35 42.6 -9.85L42.7 -10.65L42.8 -10.75L42.95 -10.5L43.35 -10.05L44.1 -9.2M41.15 -9.45L41.45 -9.55L41.35 -9.6L41.15 -9.45M-25.45 15.3Q-23.55 14.85 -22.9 13.3Q-23.45 14.95 -25.4 15.35L-24.2 14.15Q-23.8 13.25 -22.65 12.45Q-22.45 11.5 -22.65 10.55Q-23.7 10.9 -24.55 11.65Q-25.45 12.55 -25.75 13.5L-26.3 13.65L-27.55 14.9Q-27.6 14.95 -27.6 14.9Q-26.65 15.55 -25.45 15.3M7.55 30.65Q7.05 30.95 6.95 31.4L7 31.55L6.95 31.75L6.75 31.85L6.6 31.85L6.4 32L6.1 32.65L5.55 33.8Q6.15 33.6 6.35 33L6.6 32.25Q7.2 32.9 6.75 33.85Q6.2 34.85 4.5 35L3.9 35.05Q4.6 34.95 4.75 34.1L4.95 32.9L5.1 32.5L4.9 32.65Q4.3 33.1 3.4 33.1Q5.7 32.15 2.9 29.35Q1.15 27.6 -1.85 25.65Q1.25 27.55 3.5 28.35Q7.3 29.65 7.1 27.15L7.4 28.7Q7.25 30.15 4.85 29.85Q5.8 31.3 5.45 32.1L5.55 32Q6.2 31.65 6.5 31.75L6.45 31.6Q6.4 31.35 6.7 31.35L6.85 31.35Q6.65 31.1 6.75 30.4Q6.85 29.85 7.35 29.5L8.4 28.85Q9.15 28.4 8.95 27.7L9.15 28.3Q9.6 29.9 8.9 30.8Q8.1 31.7 7.1 31.4L8 30.75Q8.45 30.35 8.4 29.75L7.55 30.65M26.8 -24.85Q27.85 -25.65 28.75 -25.4L29.4 -24.85Q29 -25.2 28.55 -24.85Q28.3 -24.65 27.95 -24.55L27.65 -24.5Q28.05 -24.55 28.25 -24.05Q26.7 -24.1 25.8 -22.45Q25.9 -24.1 26.8 -24.85M-49.45 -20.6L-49.95 -20.9L-51.85 -20.85Q-50.9 -21.6 -49.4 -21.8Q-48.3 -22.05 -47.45 -21.05L-47.3 -21.1Q-47.1 -21.1 -46.85 -20.85Q-47.1 -21.1 -47.45 -21.05L-49.45 -20.6M-27.6 14.9Q-27.45 13.75 -26.5 12.6Q-25.1 10.85 -22.7 10.35L-22.75 10.1L-23.3 10.15Q-26.35 10.6 -28.95 12.5L-29.5 12.55Q-29.8 12.35 -28.8 11.5Q-27.65 10.5 -24.95 10.05L-22.85 9.8L-23 9.45L-23.25 8.9L-25.85 8.75L-27.3 9.15L-26.85 8.6L-26.65 8.45L-28.45 8.65L-29.25 9.1L-27.65 7.9Q-26.15 7.4 -23.5 8.4Q-24.2 7.35 -25.2 6.55L-26.65 5.7Q-27.3 6.45 -29.15 6.45L-31.2 6.55L-34.15 6.3Q-31.15 6.15 -29.4 5.1L-30.85 5.1Q-31.75 5.55 -32.9 5.8L-34.05 5.95L-35.5 6.8L-34.4 6.7Q-34.7 7.75 -35.5 7.85L-34.9 7.9Q-34.15 7.95 -33.55 8.3L-32.25 8.4L-31.7 8Q-31.75 8.8 -33 9.35Q-34.7 10.1 -37.05 8.7L-37.35 8.5L-38 9.3L-38.75 10.55Q-37.1 13.45 -35.6 11.7L-36.45 13Q-37.6 13.95 -39.1 12.05Q-39.35 13.4 -39.95 13.9L-40.15 16.15Q-40.2 19.9 -38.6 23.2Q-36.95 26.75 -33.95 28.6Q-29.9 31 -24.75 30.65Q-21 30.4 -17.6 28.75L-18.7 27.7Q-19.9 26.7 -19.9 25.85L-19.35 25.85Q-18.8 25.95 -18.55 26.2Q-18.6 25.8 -19.25 25.1Q-19.7 24.7 -19.7 23.95L-19.45 23L-19.25 23.2L-18.95 23.65Q-18.95 23 -18.55 22.35Q-17.75 21.15 -15.85 21.55L-17 22.45Q-18.05 23.8 -18 25.9Q-17.95 27.15 -17.05 28.5L-16.7 28.3Q-17.4 27.05 -17.35 25.85Q-17.25 24.05 -16.3 22.85Q-15.4 21.75 -14.3 21.6Q-13.45 21.5 -13.05 22.25L-12.6 22.4L-11.95 22.85Q-12.3 22.2 -13.05 22.25Q-13.6 21.95 -14.15 21.95Q-15.2 22.1 -16.05 23.15Q-16.9 24.35 -16.9 25.85Q-16.9 27.05 -16.3 28.05L-15.7 27.7L-13.9 26.55L-13.8 26.35Q-13.5 25.95 -13.1 25.9L-13 25.9L-12.7 25.7L-12.8 25.65Q-13.4 26 -13.85 25.35L-14.1 24.35Q-14.15 23.75 -14.5 23.4L-13.45 23.35L-12.45 23.25Q-11.65 23.4 -11.75 24.1Q-11.25 24.3 -11.4 23.8Q-11.9 23.4 -11.5 22.75L-10.7 22.1Q-10.15 21.8 -9.95 21.4L-9.55 22.35L-9.3 22.65L-8.35 21.55L-7.5 20.55Q-8.15 19.5 -8.45 18.15L-8.65 16.6L-9.6 17.9Q-10.45 18.8 -10.5 19.35L-10.45 19.75L-10.85 19.25Q-11 18.55 -9.95 17.5Q-10.45 17.8 -11 17.9Q-12.05 18.05 -12 16.65L-10.8 17.2Q-9.5 17.15 -8.35 14.05Q-8.4 14.05 -8.35 14Q-8 12.95 -7.3 12.05L-6.7 11.4L-6.55 11.8L-7.55 13.5Q-8.4 15.5 -8 17.3Q-7.65 18.8 -6.95 19.9L-5.5 17.85Q-6.05 17.35 -6.6 17.25L-5.65 16.4L-4.85 15.55L-3.95 15.4L-3.8 15.15Q-4.1 14.85 -4.05 14.25L-3.5 13.15Q-3.05 12.55 -3.05 12L-2.45 12.6Q-1.05 9.4 -0.5 6.05Q-1.2 6.35 -1.55 5.75L-1.75 4.95Q-1.1 5.75 -0.4 5.35L-0.3 4.5L-0.2 3.7L-1.2 3.4L-0.15 2.7Q-0.1 0 -0.65 -2.5L-0.9 -2.95Q-0.95 0.05 -2.5 3.2Q-3.95 6 -5.85 7.9Q-7.8 9.95 -8.35 9.25Q-8.65 8.8 -7.6 7.9L-6.45 7.05Q-3.2 4.6 -1.85 -0.35L-1.25 -3.75L-2.25 -6.3Q-2.15 -4.95 -2.9 -3.85L-4.45 -2.5Q-2.65 -5.4 -4.5 -9Q-6.3 -12.4 -9.8 -13.65Q-12.55 -14.65 -15.15 -14.35L-17.25 -13.9L-17.1 -14.3Q-15.2 -15.3 -12.65 -15.5Q-14.6 -16.7 -15.65 -18.05Q-17.05 -19.9 -17.65 -21.55Q-18.35 -23.4 -18.3 -25.7L-18.3 -25.85L-19.55 -25.9L-18.95 -26.2L-18.2 -26.75L-17.95 -28L-18.6 -27.5L-19.6 -26.45L-19.8 -26L-19.7 -25.9L-19.55 -25.55Q-19.5 -25.3 -19.6 -25.15L-19.75 -24.85Q-19.95 -24.7 -20.2 -24.7Q-20.45 -24.7 -20.6 -24.95L-20.75 -25.45L-20.55 -25.95L-20.1 -26.15L-20.15 -26.25Q-20.4 -26.9 -20.25 -28Q-20.1 -29.15 -19.15 -29.9L-17 -31.3Q-15.95 -32 -15.9 -33.05L-15.95 -33.5L-15.4 -32.55L-15.3 -32.15L-14.05 -33.15Q-12.5 -34.1 -10.65 -34.35L-8.15 -34.35Q-6.95 -34.15 -5.65 -33.4Q-3.9 -32.4 -2.9 -30.95Q-1.7 -29.05 -1.6 -27L-1.6 -26.2L-0.7 -28.45L-0.2 -28.65Q0.6 -30 1.95 -31.45Q4.25 -33.95 6.35 -34.9Q8.45 -35.85 10.2 -36.05L14.4 -35.65Q16.65 -35.05 18.35 -33.35Q19.95 -31.75 20.6 -29.75Q21.1 -28.2 21 -26.5Q21.85 -26.65 22.35 -26L22.6 -25.3Q23 -24.6 22.9 -25.7Q22.85 -26.8 23.45 -26.8L24.1 -26.55L23.8 -26.4Q23.5 -26.05 23.7 -25.2Q23.9 -24.5 23.4 -24.3L22.85 -24.2L22.65 -23.7Q22.35 -23.25 21.7 -23.55L20.5 -23.75L20.25 -23.45L20.25 -23.55Q19.75 -22.5 18.85 -21.55Q19.6 -21.15 20.35 -20.55Q23 -18.35 23.25 -14.8Q23.4 -11.75 21.8 -9.6L20.15 -8L20.15 -8.5L21.45 -10.05Q22.7 -12.05 22.6 -14Q22.35 -17.2 20.45 -19.05Q19.25 -20.25 17.75 -20.55Q16.8 -19.85 15.8 -19.5L15.25 -19.3L15.5 -18.95L15.8 -17.8L16.6 -18.3Q17.55 -18.7 18.4 -18.1L17.95 -17.9L17.3 -17.15L17.95 -17.15Q18.65 -16.9 18.6 -15.95L17.8 -16Q16.95 -15.85 16.65 -14.8L17.55 -15.2Q18.45 -15.35 19 -14.4L18.3 -14.4Q17.65 -14.3 17.65 -13.8L18.55 -13.6Q19.45 -13.1 19.35 -11.8Q18.6 -10.75 17.65 -11L16.9 -11.55Q16.65 -11.15 17.1 -10.65L17.65 -10.2Q16.6 -9.8 16 -10.55L15.6 -11.4Q15.15 -10.35 15.7 -9.7L16.35 -9.2Q15.75 -8.5 15.1 -8.75L14.55 -9.15Q14.3 -8.35 14.8 -7.7Q13.75 -7.75 13.25 -8.65L13 -9.6Q12.6 -9.05 12.05 -8.85L11.55 -8.75L11.55 -9.3Q11.6 -9.95 11.95 -10.65Q11.7 -10.75 11.5 -11.05L10.85 -11.3Q10.25 -11.7 10.05 -12.45Q8.75 -12.75 8.4 -14L9.05 -13.85Q9.35 -12.95 10.05 -12.45Q10.4 -11.25 11.5 -11.05L12 -10.9L12.05 -10.85L12.35 -11.3L13.65 -12.05Q14.55 -12.45 15.25 -13.4Q15.35 -14.55 14.75 -15.45Q14.2 -16.35 14.25 -16.9Q14.3 -18 14.75 -18.75L15.15 -19.3L11.65 -19.15Q10.85 -19.3 10.15 -19.65L9.9 -19.4L9.45 -19.8L9.55 -19.95L8.55 -20.75Q8.85 -20.2 9.45 -19.8L9.4 -19.75L9.75 -19.25L9.9 -19.4Q10.6 -17.9 12.45 -16.75Q13.95 -15.85 14.35 -14.85L14.4 -14.1Q14 -12.6 11.85 -13.15L7.65 -14.4Q5.95 -14.7 4.95 -13.75L4.35 -12.7Q4.1 -13.85 4.45 -14.45M-25.4 15.35Q-26.65 15.65 -27.55 14.9" />
</g>
<g id="PathID_2" transform="matrix(2.51999, 0, 0, 2.51999, 271.1, 173.65)" opacity="1">
</g>
</g>
<g id="PathID_3" transform="matrix(2.51999, 0, 0, 2.51999, 278.5, 178.6)" opacity="1">
<path style="fill:#FFFEFC;fill-opacity:1" d="M57.05 -0.75L47.75 21.6L47.55 21.7L43.2 22.15L39.25 22.2Q20.35 15.4 0.1 15.4Q-20.45 15.4 -39.65 22.4L-42.05 22.8L-44.8 22.65L-47.4 21.6L-47.6 21.5L-57.05 -1.2L-56.9 -1.45Q-55.1 -5.35 -54.2 -5.7Q-50.15 -7.25 -46.1 -8.6L-47.9 -12.9L-46.1 -13.65Q-23.8 -22.85 0.15 -22.85Q24.1 -22.85 46.3 -13.65L48.1 -12.9L46.35 -8.6L54.5 -5.65Q55.4 -5.3 56.95 -0.95L57.05 -0.75" />
</g>
<g id="PathID_4" transform="matrix(2.51999, 0, 0, 2.51999, 278.5, 178.6)" opacity="1">
</g>
<filter id="filter6" x="-0.51" y="-0.51" width="2.22233" height="2.22411" >
<feComponentTransfer in="SourceGraphic">
	<feFuncR type="linear" slope="0"/>
	<feFuncG type="linear" slope="0"/>
	<feFuncB type="linear" slope="0"/>
</feComponentTransfer>
<feGaussianBlur stdDeviation="0 0" />
<feOffset dx="2.12135" dy="2.12129"/>
<feComponentTransfer result="4">
	<feFuncR type="linear" Ue="0" intercept="0.352941"/>
	<feFuncG type="linear" Ue="0" intercept="0.258824"/>
	<feFuncB type="linear" Ue="0" intercept="0.101961"/>
	<feFuncA type="linear" xh="0" slope="0.601563"/>
</feComponentTransfer>
<feComposite result="5"  in="SourceGraphic" in2="4" operator="over"/>
</filter>
<g style="filter:url(#filter6);">
<g id="PathID_5" transform="matrix(2.51999, 0, 0, 2.51999, 383.25, 204.3)" opacity="1">
<path style="fill:#A66B00;fill-opacity:1" d="M18.55 -14.25L18.35 -12.4Q18.2 -11.2 18.45 -9.15L18.85 -5.45Q19.15 -1.45 17.95 1.15Q17.05 3.2 15.1 5.1Q16.65 2.7 16.8 0.8Q16.9 -0.35 17.3 -1.15L17.6 -1.7Q17 -4.05 17.05 -5.2Q17.05 -5.9 17.4 -5.75L17.75 -5.4Q16.35 -8.35 16.25 -9.7Q16.2 -10.7 16.85 -12.3Q17.5 -13.85 18.1 -14.25Q18.55 -14.6 18.55 -14.25M9.95 -14.1Q11.3 -13.4 12.4 -12Q14.1 -9.9 15.45 -7.2L14.25 -9.75Q12.75 -12.5 11.2 -13.65Q9.1 -15.15 8.85 -15.4Q8.45 -15.85 8.55 -16.55Q8.7 -17.4 8.95 -17.5Q9.25 -17.6 10 -16.85L13.2 -13.85Q15.7 -10.95 16.4 -7.45Q17.25 -3.55 16.1 1.1Q15 5.4 13 7.55Q11.5 9.25 9.6 10.25L8.05 10.85L9.35 10.55Q11.05 10 12.75 9Q14.3 8 14.85 7.1L15.25 6.65Q15.85 6.75 14.7 9Q14.35 9.7 15.5 10.65L15.95 11.25L15.5 11.95Q15 12.35 11.95 13.35L6.5 14.75L1.9 14.95L-1.05 14.5Q-3.25 13.8 -5.1 12.35L-6.5 11.05L-4.6 11.2Q-2.3 11.15 -0.2 9.85Q1.9 8.5 2.4 7.15Q3.1 5.35 2.4 3.8L1.55 2.6L1.8 2.35Q2.05 2.05 2.45 2.15L3.35 2.4L3.65 2.05Q4.05 1.7 4.5 1.7Q4.95 1.75 5.15 2.6L5.1 4.2L4.4 7.1Q6.15 5.15 6.75 3.45Q7.15 2.45 7 1.55Q6.9 1 7.1 0.95Q7.5 0.9 8.55 1.55L8.6 1.15Q8.55 0.45 9.25 0Q10.05 -0.6 10.5 -0.5Q10.85 -0.4 10.85 0.25Q10.8 1.9 10.15 3.4L9.25 5.15L10.3 3.65Q11.65 1.25 11.9 -1.4Q12.2 -4.2 9.9 -5.9Q7.95 -7.35 6.35 -7.05Q3.4 -6.45 3 -4.25Q2.75 -3.15 3 -2.6L3.25 -2.35L2.95 -2.1Q2.45 -1.95 1.75 -2.5Q0.75 -3.4 0.7 -5.1Q0.65 -7.05 2.4 -8.1Q4.4 -9.4 6.7 -9.25Q9.2 -9.15 11.1 -7.4Q13 -5.6 13.15 -2Q13.25 1.35 11.7 4.1Q10.35 6.5 8.05 8.6Q6.1 10.4 3.9 11.6Q2.35 12.5 0.9 12.9L1.1 12.9L4.55 11.7Q10 9.25 12.65 3.75Q15.4 -1.85 13.45 -5.7Q12.15 -8.3 9.85 -9L7.85 -10.2Q7 -10.95 7.05 -11.75Q7.05 -12.45 7.75 -12.8L8.4 -13.05L8.35 -13.7Q8.3 -14.35 8.55 -14.5L9.95 -14.1M7.1 -9.85L3.9 -9.4Q3.5 -9.3 3.25 -9.65L2.75 -10.55Q2.45 -11.35 2.65 -11.5L4.35 -11.6Q5.65 -11.35 6.5 -10.55L7.1 -9.85M-3.95 5.8L-4.85 6.35L-3.95 6Q-2.9 5.7 -2.5 6Q-1.95 6.25 -1.75 6.9Q-1.55 7.5 -1.75 7.8L-2.35 7.85Q-2.8 7.6 -2.9 7.05Q-3 6.5 -3.8 6.45Q-4.6 6.4 -4.95 7Q-5.65 8 -3.8 10.3L-5.9 10.45Q-6.8 9.85 -8.1 9.5Q-10 9 -11.4 9.5Q-13.05 10.05 -13.55 11.7L-13.85 13.2L-14.35 13.15Q-14.7 12.95 -14.5 12.5Q-14.35 12.1 -14.5 11.95L-14.75 11.8L-14.2 10.65L-13.05 9Q-12.15 8.1 -10.2 8.1Q-8.75 8.1 -7 8.95L-5.5 9.75Q-7.45 7.55 -7.35 6.55L-7.05 5.6L-6.9 5.45L-6.1 5.5L-6.4 6.6L-6.25 7.4L-6 6L-5.35 4.85L-4.95 4.35L-4.3 4.8L-5.2 5.6L-3.65 4.9Q-3.3 4.8 -2.95 5.05Q-2.55 5.2 -2.6 5.4Q-2.7 5.6 -3.15 5.6L-3.95 5.8M-11.75 6.1L-11.1 6.8L-9.15 8L-11.05 7.8L-11.85 7.75L-12.4 7.3L-12.45 6.9L-12.3 6.75L-12.3 6.45L-12.15 6Q-11.95 5.85 -11.75 6.1M-16.35 4.4L-16.3 4.5L-16.3 5.05L-17 6.5Q-17.55 7.65 -17 8.3Q-16.5 9 -15.45 9.1L-14.55 9.05Q-14.8 9.6 -15.2 9.75L-16.2 9.75L-16.85 9.7L-15.65 9.95L-17.5 10.05Q-18.4 9.65 -18.7 8.85Q-19.1 7.95 -18.55 6.75Q-18.1 5.7 -17.2 4.95L-16.35 4.4M-15.9 4.5L-15.55 4.95Q-15.25 5.6 -15.5 6.35L-15.85 7.15L-15.95 7.9L-15.25 8.8Q-16.25 8.75 -16.6 8.05Q-17 7.15 -16.35 5.85Q-15.9 4.95 -15.9 4.5M-10.95 13.8Q-10.25 13.1 -9 13.55L-10 15.2L-10.8 16.6Q-11.25 17.3 -11.95 17.5L-13.45 17.45L-14.15 17.15L-13.3 17.2Q-12.3 17.2 -11.85 16.8Q-11.1 16.15 -10.75 15.3Q-11.85 16.95 -12.95 17.05Q-13.65 17.1 -14.7 16.5L-15.6 15.85L-14.45 16.4L-12.75 16.3L-11.85 15L-10.95 13.8M-13.85 16.3Q-15.25 15.9 -16.05 14.95Q-16.3 14.8 -16 14.35Q-15.45 15.55 -13.85 16.3M-15.85 10.8Q-14.9 9.3 -13.3 8.7L-14.1 9.9L-14.75 10.35Q-15.3 10.75 -15.7 11.6L-15.9 12.2Q-16.9 13.45 -16 14.25L-16.25 13.15L-15.9 12.2Q-16.25 11.45 -15.85 10.8" />
</g>
<g id="PathID_6" transform="matrix(2.51999, 0, 0, 2.51999, 383.25, 204.3)" opacity="1">
</g>
</g>
<filter id="filter9" x="-0.521857" y="-0.521857" width="2.25514" height="2.36513" >
<feComponentTransfer in="SourceGraphic">
	<feFuncR type="linear" slope="0"/>
	<feFuncG type="linear" slope="0"/>
	<feFuncB type="linear" slope="0"/>
</feComponentTransfer>
<feGaussianBlur stdDeviation="0.6 0.6" />
<feOffset dx="7.07116" dy="7.07098"/>
<feComponentTransfer result="7">
	<feFuncR type="linear" Ue="0" intercept="0.352941"/>
	<feFuncG type="linear" Ue="0" intercept="0.32549"/>
	<feFuncB type="linear" Ue="0" intercept="0.278431"/>
	<feFuncA type="linear" xh="0" slope="0.300781"/>
</feComponentTransfer>
<feComposite result="8"  in="SourceGraphic" in2="7" operator="over"/>
</filter>
<g style="filter:url(#filter9);">
<g id="PathID_7" transform="matrix(0.673738, -0.314169, 0.314169, 0.673738, 169.2, 206.3)" opacity="1">
<path style="fill:#A68852;fill-opacity:1" d="M24.65 -24.65L24.65 -45.55L32.1 -45.55L32.1 0L24.65 0L24.65 -20.35L10.2 -20.35L10.2 0L2.75 0L2.75 -45.55L10.2 -45.55L10.2 -24.65L24.65 -24.65" />
</g>
<g id="PathID_8" transform="matrix(0.673738, -0.314169, 0.314169, 0.673738, 169.2, 206.3)" opacity="1">
</g>
<g id="PathID_9" transform="matrix(0.710905, -0.217346, 0.217346, 0.710905, 195.65, 193.6)" opacity="1">
<path style="fill:#A68852;fill-opacity:1" d="M2.75 -37.05Q2.75 -41.85 5.55 -43.85Q7.95 -45.55 12.8 -45.55L20.8 -45.55Q26.05 -45.55 28.5 -44.3Q32.1 -42.65 32.1 -37.05L32.1 -8.5Q32.1 -2.9 28.5 -1.25Q26.05 0 20.8 0L13.05 0Q8.35 0 6.15 -1.25Q2.75 -3.2 2.75 -8.5L2.75 -37.05M10.2 -5.85Q10.2 -4.65 10.6 -4.4Q11.2 -4.2 13.05 -4.2L20.8 -4.2Q23.65 -4.2 24.35 -4.45Q24.65 -4.65 24.65 -5.7L24.65 -39.8Q24.65 -41.05 23.6 -41.3L20.8 -41.35L13.4 -41.35Q11.25 -41.35 10.95 -41.25Q10.2 -41 10.2 -39.7L10.2 -5.85" />
</g>
<g id="PathID_10" transform="matrix(0.710905, -0.217346, 0.217346, 0.710905, 195.65, 193.6)" opacity="1">
</g>
<g id="PathID_11" transform="matrix(0.732094, -0.129088, 0.129088, 0.732094, 223.75, 184.85)" opacity="1">
<path style="fill:#A68852;fill-opacity:1" d="M18 0L10.5 0L10.5 -4.25L10.55 -4.25L10.55 -41.3L2.25 -41.3L2.25 -45.55L26.35 -45.55L26.35 -41.3L18 -41.3L18 0" />
</g>
<g id="PathID_12" transform="matrix(0.732094, -0.129088, 0.129088, 0.732094, 223.75, 184.85)" opacity="1">
</g>
<g id="PathID_13" transform="matrix(0.742369, -0.0389059, 0.0389059, 0.742369, 247.45, 180.6)" opacity="1">
<path style="fill:#A68852;fill-opacity:1" d="M32.1 -4.2L32.1 0L2.75 0L2.75 -45.55L32.1 -45.55L32.1 -41.35L10.2 -41.35L10.2 -24.65L25.65 -24.65L25.65 -20.35L10.2 -20.35L10.2 -4.2L32.1 -4.2" />
</g>
<g id="PathID_14" transform="matrix(0.742369, -0.0389059, 0.0389059, 0.742369, 247.45, 180.6)" opacity="1">
</g>
<g id="PathID_15" transform="matrix(0.742369, 0.0389059, -0.0389059, 0.742369, 274.4, 179.15)" opacity="1">
<path style="fill:#A68852;fill-opacity:1" d="M27.7 -4.2L27.7 0L3.4 0L3.4 -45.55L10.85 -45.55L10.85 -4.2L27.7 -4.2" />
</g>
<g id="PathID_16" transform="matrix(0.742369, 0.0389059, -0.0389059, 0.742369, 274.4, 179.15)" opacity="1">
</g>
<g id="PathID_17" transform="matrix(0.72973, 0.141845, -0.141845, 0.72973, 298.2, 180.8)" opacity="1">
<path style="fill:#A68852;fill-opacity:1" d="M32.1 -15.4L32.1 -8.5Q32.1 -2.9 28.5 -1.25Q26.05 0 20.8 0L13.05 0Q8.35 0 6.15 -1.25Q2.75 -3.2 2.75 -8.5L2.75 -37.05Q2.75 -41.85 5.55 -43.85Q7.95 -45.55 12.8 -45.55L20.8 -45.55Q26.05 -45.55 28.5 -44.3Q32.1 -42.65 32.1 -37.05L32.1 -30.15L24.65 -30.15L24.65 -39.8Q24.65 -41.05 23.6 -41.3L20.8 -41.35L13.4 -41.35Q11.25 -41.35 10.95 -41.25Q10.2 -41 10.2 -39.7L10.2 -5.85Q10.2 -4.65 10.6 -4.4Q11.2 -4.2 13.05 -4.2L20.8 -4.2Q23.65 -4.2 24.35 -4.45Q24.65 -4.65 24.65 -5.7L24.65 -15.4L32.1 -15.4" />
</g>
<g id="PathID_18" transform="matrix(0.72973, 0.141845, -0.141845, 0.72973, 298.2, 180.8)" opacity="1">
</g>
<g id="PathID_19" transform="matrix(0.702887, 0.242023, -0.242023, 0.702887, 325.9, 186.2)" opacity="1">
<path style="fill:#A68852;fill-opacity:1" d="M2.75 -37.05Q2.75 -41.85 5.55 -43.85Q7.95 -45.55 12.8 -45.55L20.8 -45.55Q26.05 -45.55 28.5 -44.3Q32.1 -42.65 32.1 -37.05L32.1 -8.5Q32.1 -2.9 28.5 -1.25Q26.05 0 20.8 0L13.05 0Q8.35 0 6.15 -1.25Q2.75 -3.2 2.75 -8.5L2.75 -37.05M10.2 -5.85Q10.2 -4.65 10.6 -4.4Q11.2 -4.2 13.05 -4.2L20.8 -4.2Q23.65 -4.2 24.35 -4.45Q24.65 -4.65 24.65 -5.7L24.65 -39.8Q24.65 -41.05 23.6 -41.3L20.8 -41.35L13.4 -41.35Q11.25 -41.35 10.95 -41.25Q10.2 -41 10.2 -39.7L10.2 -5.85" />
</g>
<g id="PathID_20" transform="matrix(0.702887, 0.242023, -0.242023, 0.702887, 325.9, 186.2)" opacity="1">
</g>
<g id="PathID_21" transform="matrix(0.668153, 0.32588, -0.32588, 0.668153, 353.7, 195.85)" opacity="1">
<path style="fill:#A68852;fill-opacity:1" d="M10.2 0L2.75 0L2.75 -45.55L20.8 -45.55Q26.05 -45.55 28.5 -44.3Q32.1 -42.65 32.1 -37.05L32.1 -25.7Q32.1 -20.05 28.5 -18.45Q26.05 -17.15 20.8 -17.15L10.2 -17.15L10.2 0M20.8 -21.4Q23.65 -21.4 24.35 -21.65Q24.65 -21.8 24.65 -22.9L24.65 -39.8Q24.65 -41.05 23.6 -41.3L20.8 -41.35L10.2 -41.35L10.2 -21.4L20.8 -21.4" />
</g>
<g id="PathID_22" transform="matrix(0.668153, 0.32588, -0.32588, 0.668153, 353.7, 195.85)" opacity="1">
</g>
</g>
<filter id="filter12" x="-0.51" y="-0.51" width="2.22233" height="2.22411" >
<feComponentTransfer in="SourceGraphic">
	<feFuncR type="linear" slope="0"/>
	<feFuncG type="linear" slope="0"/>
	<feFuncB type="linear" slope="0"/>
</feComponentTransfer>
<feGaussianBlur stdDeviation="0 0" />
<feOffset dx="2.12135" dy="2.12129"/>
<feComponentTransfer result="10">
	<feFuncR type="linear" Ue="0" intercept="0.352941"/>
	<feFuncG type="linear" Ue="0" intercept="0.266667"/>
	<feFuncB type="linear" Ue="0" intercept="0.12549"/>
	<feFuncA type="linear" xh="0" slope="0.601563"/>
</feComponentTransfer>
<feComposite result="11"  in="SourceGraphic" in2="10" operator="over"/>
</filter>
<g style="filter:url(#filter12);">
<g id="PathID_23" transform="matrix(-2.51999, 0, 0, 2.51999, 162.8, 203.3)" opacity="1">
<path style="fill:#A66E0A;fill-opacity:1" d="M18.55 -14.25L18.35 -12.4Q18.2 -11.2 18.45 -9.15L18.85 -5.45Q19.15 -1.45 17.95 1.15Q17.05 3.2 15.1 5.1Q16.65 2.7 16.8 0.8Q16.9 -0.35 17.3 -1.15L17.6 -1.7Q17 -4.05 17.05 -5.2Q17.05 -5.9 17.4 -5.75L17.75 -5.4Q16.35 -8.35 16.25 -9.7Q16.2 -10.7 16.85 -12.3Q17.5 -13.85 18.1 -14.25Q18.55 -14.6 18.55 -14.25M9.95 -14.1Q11.3 -13.4 12.4 -12Q14.1 -9.9 15.45 -7.2L14.25 -9.75Q12.75 -12.5 11.2 -13.65Q9.1 -15.15 8.85 -15.4Q8.45 -15.85 8.55 -16.55Q8.7 -17.4 8.95 -17.5Q9.25 -17.6 10 -16.85L13.2 -13.85Q15.7 -10.95 16.4 -7.45Q17.25 -3.55 16.1 1.1Q15 5.4 13 7.55Q11.5 9.25 9.6 10.25L8.05 10.85L9.35 10.55Q11.05 10 12.75 9Q14.3 8 14.85 7.1L15.25 6.65Q15.85 6.75 14.7 9Q14.35 9.7 15.5 10.65L15.95 11.25L15.5 11.95Q15 12.35 11.95 13.35L6.5 14.75L1.9 14.95L-1.05 14.5Q-3.25 13.8 -5.1 12.35L-6.5 11.05L-4.6 11.2Q-2.3 11.15 -0.2 9.85Q1.9 8.5 2.4 7.15Q3.1 5.35 2.4 3.8L1.55 2.6L1.8 2.35Q2.05 2.05 2.45 2.15L3.35 2.4L3.65 2.05Q4.05 1.7 4.5 1.7Q4.95 1.75 5.15 2.6L5.1 4.2L4.4 7.1Q6.15 5.15 6.75 3.45Q7.15 2.45 7 1.55Q6.9 1 7.1 0.95Q7.5 0.9 8.55 1.55L8.6 1.15Q8.55 0.45 9.25 0Q10.05 -0.6 10.5 -0.5Q10.85 -0.4 10.85 0.25Q10.8 1.9 10.15 3.4L9.25 5.15L10.3 3.65Q11.65 1.25 11.9 -1.4Q12.2 -4.2 9.9 -5.9Q7.95 -7.35 6.35 -7.05Q3.4 -6.45 3 -4.25Q2.75 -3.15 3 -2.6L3.25 -2.35L2.95 -2.1Q2.45 -1.95 1.75 -2.5Q0.75 -3.4 0.7 -5.1Q0.65 -7.05 2.4 -8.1Q4.4 -9.4 6.7 -9.25Q9.2 -9.15 11.1 -7.4Q13 -5.6 13.15 -2Q13.25 1.35 11.7 4.1Q10.35 6.5 8.05 8.6Q6.1 10.4 3.9 11.6Q2.35 12.5 0.9 12.9L1.1 12.9L4.55 11.7Q10 9.25 12.65 3.75Q15.4 -1.85 13.45 -5.7Q12.15 -8.3 9.85 -9L7.85 -10.2Q7 -10.95 7.05 -11.75Q7.05 -12.45 7.75 -12.8L8.4 -13.05L8.35 -13.7Q8.3 -14.35 8.55 -14.5L9.95 -14.1M7.1 -9.85L3.9 -9.4Q3.5 -9.3 3.25 -9.65L2.75 -10.55Q2.45 -11.35 2.65 -11.5L4.35 -11.6Q5.65 -11.35 6.5 -10.55L7.1 -9.85M-3.95 5.8L-4.85 6.35L-3.95 6Q-2.9 5.7 -2.5 6Q-1.95 6.25 -1.75 6.9Q-1.55 7.5 -1.75 7.8L-2.35 7.85Q-2.8 7.6 -2.9 7.05Q-3 6.5 -3.8 6.45Q-4.6 6.4 -4.95 7Q-5.65 8 -3.8 10.3L-5.9 10.45Q-6.8 9.85 -8.1 9.5Q-10 9 -11.4 9.5Q-13.05 10.05 -13.55 11.7L-13.85 13.2L-14.35 13.15Q-14.7 12.95 -14.5 12.5Q-14.35 12.1 -14.5 11.95L-14.75 11.8L-14.2 10.65L-13.05 9Q-12.15 8.1 -10.2 8.1Q-8.75 8.1 -7 8.95L-5.5 9.75Q-7.45 7.55 -7.35 6.55L-7.05 5.6L-6.9 5.45L-6.1 5.5L-6.4 6.6L-6.25 7.4L-6 6L-5.35 4.85L-4.95 4.35L-4.3 4.8L-5.2 5.6L-3.65 4.9Q-3.3 4.8 -2.95 5.05Q-2.55 5.2 -2.6 5.4Q-2.7 5.6 -3.15 5.6L-3.95 5.8M-11.75 6.1L-11.1 6.8L-9.15 8L-11.05 7.8L-11.85 7.75L-12.4 7.3L-12.45 6.9L-12.3 6.75L-12.3 6.45L-12.15 6Q-11.95 5.85 -11.75 6.1M-16.35 4.4L-16.3 4.5L-16.3 5.05L-17 6.5Q-17.55 7.65 -17 8.3Q-16.5 9 -15.45 9.1L-14.55 9.05Q-14.8 9.6 -15.2 9.75L-16.2 9.75L-16.85 9.7L-15.65 9.95L-17.5 10.05Q-18.4 9.65 -18.7 8.85Q-19.1 7.95 -18.55 6.75Q-18.1 5.7 -17.2 4.95L-16.35 4.4M-15.9 4.5L-15.55 4.95Q-15.25 5.6 -15.5 6.35L-15.85 7.15L-15.95 7.9L-15.25 8.8Q-16.25 8.75 -16.6 8.05Q-17 7.15 -16.35 5.85Q-15.9 4.95 -15.9 4.5M-10.95 13.8Q-10.25 13.1 -9 13.55L-10 15.2L-10.8 16.6Q-11.25 17.3 -11.95 17.5L-13.45 17.45L-14.15 17.15L-13.3 17.2Q-12.3 17.2 -11.85 16.8Q-11.1 16.15 -10.75 15.3Q-11.85 16.95 -12.95 17.05Q-13.65 17.1 -14.7 16.5L-15.6 15.85L-14.45 16.4L-12.75 16.3L-11.85 15L-10.95 13.8M-13.85 16.3Q-15.25 15.9 -16.05 14.95Q-16.3 14.8 -16 14.35Q-15.45 15.55 -13.85 16.3M-15.85 10.8Q-14.9 9.3 -13.3 8.7L-14.1 9.9L-14.75 10.35Q-15.3 10.75 -15.7 11.6L-15.9 12.2Q-16.9 13.45 -16 14.25L-16.25 13.15L-15.9 12.2Q-16.25 11.45 -15.85 10.8" />
</g>
<g id="PathID_24" transform="matrix(-2.51999, 0, 0, 2.51999, 162.8, 203.3)" opacity="1">
</g>
</g>
<g id="PathID_25" transform="matrix(0.9375, 0, 0, 0.9375, 226.05, 227.1)" opacity="1">
<path style="fill:#A66B00;fill-opacity:1" d="M1.6 -29.95L2.75 -33.5Q6.7 -32.1 8.55 -31.05Q8.05 -35.6 8.05 -37.3L11.7 -37.3Q11.6 -34.8 11.1 -31.1Q13.7 -32.4 17 -33.5L18.2 -29.95Q15 -28.9 11.95 -28.55Q13.45 -27.2 16.25 -23.8L13.25 -21.7Q11.8 -23.65 9.8 -27.05Q7.95 -23.55 6.5 -21.7L3.55 -23.8Q6.45 -27.4 7.7 -28.55Q4.5 -29.15 1.6 -29.95" />
</g>
<g id="PathID_26" transform="matrix(0.9375, 0, 0, 0.9375, 226.05, 227.1)" opacity="1">
</g>
<g id="PathID_27" transform="matrix(0.9375, 0, 0, 0.9375, 244.75, 227.1)" opacity="1">
<path style="fill:#A66B00;fill-opacity:1" d="M1.6 -29.95L2.75 -33.5Q6.7 -32.1 8.55 -31.05Q8.05 -35.6 8.05 -37.3L11.7 -37.3Q11.6 -34.8 11.1 -31.1Q13.7 -32.4 17 -33.5L18.2 -29.95Q15 -28.9 11.95 -28.55Q13.45 -27.2 16.25 -23.8L13.25 -21.7Q11.8 -23.65 9.8 -27.05Q7.95 -23.55 6.5 -21.7L3.55 -23.8Q6.45 -27.4 7.7 -28.55Q4.5 -29.15 1.6 -29.95" />
</g>
<g id="PathID_28" transform="matrix(0.9375, 0, 0, 0.9375, 244.75, 227.1)" opacity="1">
</g>
<g id="PathID_29" transform="matrix(0.9375, 0, 0, 0.9375, 263.45, 227.1)" opacity="1">
<path style="fill:#A66B00;fill-opacity:1" d="M1.6 -29.95L2.75 -33.5Q6.7 -32.1 8.55 -31.05Q8.05 -35.6 8.05 -37.3L11.7 -37.3Q11.6 -34.8 11.1 -31.1Q13.7 -32.4 17 -33.5L18.2 -29.95Q15 -28.9 11.95 -28.55Q13.45 -27.2 16.25 -23.8L13.25 -21.7Q11.8 -23.65 9.8 -27.05Q7.95 -23.55 6.5 -21.7L3.55 -23.8Q6.45 -27.4 7.7 -28.55Q4.5 -29.15 1.6 -29.95" />
</g>
<g id="PathID_30" transform="matrix(0.9375, 0, 0, 0.9375, 263.45, 227.1)" opacity="1">
</g>
<g id="PathID_31" transform="matrix(0.9375, 0, 0, 0.9375, 282.15, 227.1)" opacity="1">
<path style="fill:#A66B00;fill-opacity:1" d="M1.6 -29.95L2.75 -33.5Q6.7 -32.1 8.55 -31.05Q8.05 -35.6 8.05 -37.3L11.7 -37.3Q11.6 -34.8 11.1 -31.1Q13.7 -32.4 17 -33.5L18.2 -29.95Q15 -28.9 11.95 -28.55Q13.45 -27.2 16.25 -23.8L13.25 -21.7Q11.8 -23.65 9.8 -27.05Q7.95 -23.55 6.5 -21.7L3.55 -23.8Q6.45 -27.4 7.7 -28.55Q4.5 -29.15 1.6 -29.95" />
</g>
<g id="PathID_32" transform="matrix(0.9375, 0, 0, 0.9375, 282.15, 227.1)" opacity="1">
</g>
<g id="PathID_33" transform="matrix(0.9375, 0, 0, 0.9375, 300.85, 227.1)" opacity="1">
<path style="fill:#A66B00;fill-opacity:1" d="M1.6 -29.95L2.75 -33.5Q6.7 -32.1 8.55 -31.05Q8.05 -35.6 8.05 -37.3L11.7 -37.3Q11.6 -34.8 11.1 -31.1Q13.7 -32.4 17 -33.5L18.2 -29.95Q15 -28.9 11.95 -28.55Q13.45 -27.2 16.25 -23.8L13.25 -21.7Q11.8 -23.65 9.8 -27.05Q7.95 -23.55 6.5 -21.7L3.55 -23.8Q6.45 -27.4 7.7 -28.55Q4.5 -29.15 1.6 -29.95" />
</g>
<g id="PathID_34" transform="matrix(0.9375, 0, 0, 0.9375, 300.85, 227.1)" opacity="1">
</g>
</svg>
