<?xml version="1.0" encoding="utf-8"?>
<svg version="1.1" id="Layer_1"
xmlns="http://www.w3.org/2000/svg"
xmlns:xlink="http://www.w3.org/1999/xlink"
width="550px" height="400px"
xml:space="preserve">
<g id="PathID_1" transform="matrix(2.72528, 0, 0, 2.72528, 267.85, 162.45)" opacity="1">
<path style="fill:#FFFFFF;fill-opacity:1" d="M41.9 -39.35Q59.3 -23 59.3 0.05Q59.3 23.1 41.9 39.45Q24.55 55.75 0.05 55.75Q-24.45 55.75 -41.85 39.45Q-59.25 23.1 -59.25 0.05Q-59.25 -23.1 -41.85 -39.35Q-24.45 -55.75 0.05 -55.75Q24.55 -55.75 41.9 -39.35" />
</g>
<g id="PathID_2" transform="matrix(2.72528, 0, 0, 2.72528, 267.85, 162.45)" opacity="1">
</g>
<g id="PathID_3" transform="matrix(1.10514, 0, -0.0962601, 1.10094, 232.8, 76.25)" opacity="1">
<path style="fill:#FFA200;fill-opacity:0.14902" d="M35.5 0.9L35.5 0.95L35.8 0.95L35.5 0.9M35.25 0.85L34.75 0.75L33.3 0.65L32.25 0.75L34.05 0.85L35 0.95L35.25 0.85M28.55 16.15Q27.95 16.7 28 17.9L28.05 19L28.1 19.2L28.2 19.1L28.2 18.7L28.4 18L28.85 16.6L29.2 15.8Q28.8 15.9 28.55 16.15M29.1 19.9L30.8 21.55L31.3 20.9L32.55 19.2L33.1 19.55L31.85 21.3L31.25 22.05L33.3 24.15L32.85 24.6L30.85 22.55L30.35 23.15L29.15 24.6L29.15 24.65L29.9 24.6L33.45 24.9L33.45 24.25L33.45 19.4L33.45 19.35L34.1 19.35L34.1 19.4L34.05 23.95L35.65 21.9L35.55 21.8L34.35 20L34.9 19.65L36.05 21.35L36.1 21.35L38.2 18.6L37.3 18.5L36.8 18.5L35.6 18.7L32.2 19.2L29.4 19.45L29.1 19.5L29.1 19.9M29.8 22.7L30.4 22.05L29.1 20.8L29.15 23.55L29.8 22.7M38.6 18.1L38.7 18.1L39.35 18.7L39.4 17.9L39.4 17.75L38.6 18.1M34.05 24.45L34.05 24.95L34.35 25L38.5 25.35L37.25 24L36 22.45L34.4 24.65L34.05 24.45M38.5 19.4L36.6 21.75L36.5 21.95L37.75 23.55L38.7 24.65L38.55 20.45L38.45 20.4L38.5 20.15L38.5 19.4M38.7 26.4L36.55 29.3L37.5 30.3L38.9 31.55L38.5 32.05L37 30.75L36.15 29.85Q35.2 31.15 34.55 32.55L38 32.55L38.7 32.55L38.7 33.2L38.35 33.25L38.6 33.45L36.4 35.7L37.7 36.7L39.3 37.6L39 31.4L38.8 26L38.2 26L38.7 26.4M36.1 28.75L38.15 26L35.85 25.8L34.05 25.65L34.05 26.5L34.85 27.25L36.05 28.7L36.1 28.75M35.55 29.15L34.3 27.7L34.05 27.4L34.05 29.6L34 32.05L35.7 29.35L35.55 29.15M33.45 25.6L32.7 25.5L29.9 25.3L29.2 25.3L29.2 26.5L29.65 26.3L30.6 27.6L31.6 28.95L33 26.2L33.4 26.4L33.45 25.6M31.2 29.6L30.05 28L29.2 26.8L29.4 32.65L31.15 29.7L31.2 29.6M32.15 29.75L33.35 31.65L33.35 29.55L33.4 26.9L32 29.55L32.15 29.75M34 32.45L34 32.5L34.15 32.5L34 32.45M33.35 31.95L32.85 32.2L31.65 30.15L30.05 32.8L33.35 32.5L33.35 31.95M32.45 36.45L33.25 37.1L33.3 34.45L33.3 34.1L31.75 35.8L32.45 36.45M31.3 36.3L29.8 37.8L32.15 37.9L33.25 38L33.25 37.9L32 36.95L31.3 36.3M31.25 35.35L31.25 35.3L33.25 33.15L29.6 33.55L29.55 33.35L29.4 33.3L29.4 33.55L29.45 33.8L30.75 34.9L31.25 35.35M33.95 34.45L33.95 37.45L35.45 35.7L35.25 35.55L33.95 34.3L33.95 34.45M29.45 34.65L29.55 37.1L30.8 35.8L30.3 35.4L29.45 34.65M29.8 40.3L29.9 38.75L30.55 38.9L30.5 39.65L30.45 41.1L30.4 42.7L30.45 44.1L29.8 44.1L29.75 42.7L29.8 40.3M29.7 48.25L29.7 49.45L31.7 47.15L30.95 46.6L29.7 45.7L29.7 48.25M29.7 44.85L31.3 46.05L32.2 46.65L33.95 44.9L29.7 44.8L29.7 44.85M29.7 44.15L30.75 44.2L30.7 43.55L30.8 40.95L30.85 38.5L29.6 38.45L29.7 44.15M39.2 38.2L38.55 38L38.6 38.55L38.2 38.6L38.5 41.7L38.7 44.4L38.95 44.4L38.8 41.8L38.4 38.9L39.05 38.75L39.45 41.75L39.65 44.9L39.3 44.95L39.3 45.05L38.7 45.05L38.7 45.3L38 45.3L38 45L34.35 44.9L34.15 44.9L34.5 45.3L32.75 47.1L33.35 47.55L34.55 48.65L34.65 45.4L35.35 45.45L35.35 45.5Q36.1 45.7 36.9 46.2L37.6 46.7L38.95 45.1L39.5 45.5L38.1 47.1L38.7 47.6L39.9 48.85L39.8 46.65L39.3 37.85L39.2 38.2M35.5 38.65L32.1 38.55L31.5 38.55L31.45 40.95L31.4 43.55L31.4 44.2L31.75 44.2L31.75 44L31.85 41.75L31.95 39.55L31.9 38.75L32.55 38.7L32.6 39.55L32.5 41.75L32.45 44L32.45 44.2L33.15 44.2Q33 43.15 33 41.85L33.05 40.15L33.35 38.65L34 38.85Q33.8 39.4 33.75 40.2L33.65 41.85L33.75 44.2L33.55 44.25L34.35 44.25L34.4 42.75L34.55 40.55L34.65 38.8L35.3 38.85L35.2 40.6L35.05 42.75L35 44.3L35.45 44.3L35.5 42.65L35.55 40.45L35.65 38.65L35.5 38.65M37.2 38.85L37.2 41.85L37.2 44.35L38 44.35L37.85 41.75L37.5 38.65L37.85 38.6L36.3 38.65L36.2 40.45L36.15 42.7L36.1 44.3L36.55 44.3L36.55 41.85L36.55 38.85L37.2 38.85M38.5 37.9L37.3 37.2L35.95 36.15L34.4 37.9L33.95 37.5L33.9 38L35.5 38L38.5 37.9M32.15 47.65L30.2 49.95L34.5 49.65L32.95 48.05L32.25 47.6L32.15 47.65M35.2 49.05L36.95 47.4L37.15 47.2L36.6 46.8Q35.9 46.3 35.35 46.2L35.2 49.05M37.4 47.85L35.55 49.7L37.7 49.7L40 49.65L39.95 49.35L39.65 49.55L38.25 48.1L37.7 47.6L37.4 47.85M39.7 50.35L38 52.05L40.25 53.6L40 50.35L39.7 50.35M37.5 52.5L35.55 54.35L36.25 54.35L40.15 54.4L40.15 54.8Q39.05 53.35 37.6 52.55L37.5 52.5M40.15 54.8L40.35 54.9L40.3 54.45L40.25 54.5L40.15 54.4M37.7 50.35L35.15 50.35L35.15 50.5L35.2 50.4L37.4 51.7L38.75 50.35L37.7 50.35M36.25 55L34.95 55.05L34.9 55.9L36.4 56.6L38 57.35L39.5 55.05L36.25 55M34.15 50.8L32.25 52.5L33.15 53.1L34.35 53.85L34.5 50.35L33.75 50.35L34.15 50.8M31.65 52.15L33.7 50.35L29.7 50.65L29.7 51.05L30 50.8L31.3 51.85L31.65 52.15M31.75 53L30.15 54.75L32.7 54.45L33.95 54.4L32.75 53.65L31.75 53M35 54.35L35 54.4L35.05 54.4L35 54.35M34.1 55.5L31.9 58.1L31.9 58.15L32.75 59.05L33.95 60.4L33.45 60.85L33.35 60.75L33.35 61.15L33.25 61.15L31.3 60.95L33.75 61.55L32.45 63.1L31.7 63.9L31.85 64.1L33.15 65.9L32.75 66.2L33.05 66.25L32.95 66.9L32.75 66.85L33.15 67.25L31.1 69.45L31.2 69.55Q32.4 70.95 33.2 72.5L33.75 64.2L34.25 56.35L34.05 56.25L34.25 55.85L34.3 55.05L32.75 55.1L29.6 55.5L29.6 56L31.1 57.3L31.4 57.65L31.45 57.6L33.55 55.15L34.1 55.5M35 53.95L36.9 52.15L35.15 51.15L35 53.95M30.9 52.4L29.7 51.45L29.65 54.3L31.2 52.6L30.9 52.4M30.6 57.8L29.6 56.85L29.4 59.45L30.9 58.1L30.6 57.8M35.25 60.8L35.5 60.75L35.25 60.55L35.25 60.8M35.15 59.05L35.25 60.45L37.5 57.85L36.1 57.2L34.85 56.65L34.75 59.05L35.15 59.05M31.3 60.95L29.35 60.75L29.3 61.2L30.3 62.2L31.3 63.4L31.95 62.65L33.25 61.15M32.25 59.5L31.4 58.55L29.75 60.1L31.35 60.3L33.15 60.5L32.25 59.5M39 57.85L40.65 58.95L40.35 54.9L38.6 57.65L39 57.85M38.7 58.45L38.1 58.15L35.85 60.75L40.75 59.95L40.7 59.35L40.35 59.6Q39.9 59.05 38.7 58.45M28.9 65.7L30.25 64.45L30.85 63.85L29.8 62.6L29.25 62.05L29.15 63.15L28.9 65.7M28.9 66.5L28.85 66.5L28.8 66.85L30.65 68.95L32.65 66.85L30.9 66.65L29 66.5L28.9 66.5M28.1 72.4L30.2 69.45L28.7 67.75L28.2 71.5L28.1 72.4M28.1 73.5Q28.5 74.35 29.25 75.4L30 76.35L32.3 73.9L32.75 74.3L30.4 76.85L30.8 77.35Q31.65 78.35 32.65 78.95L32.25 79.55L30.35 77.8L29.9 77.35L29.7 77.55L27.15 79.85L30.9 79.75L32.65 79.75L33.15 73L33.2 72.7L32.7 72.95Q31.95 71.45 30.65 69.95Q29.5 71.35 28.6 72.9L29.9 73.1L32.05 73.2L32.75 73.2L32.8 73.85L32.15 73.85L32.05 73.85L29.8 73.7L27.95 73.4L27.9 73.6L28.1 73.5M38.25 64.1L38.4 63.9L40.45 61.05L40.85 61.25L40.8 60.6L35.35 61.45L35.4 61.95L35.55 61.8Q36.6 63.1 38.15 64.05L38.25 64.1M35.55 63.6L35.95 66.65L37.8 64.6L35.45 62.7L35.55 63.6M38.4 65L37.1 66.4L38.55 66L39.8 65.7L38.4 65M36 67.35L36.15 68.15L36.55 67.95L38.15 69.75L38.8 70.3L38.9 70.1Q40 68.35 40.7 66.65L41.35 66.9L39.5 70.45L39.35 70.7L40.4 71.6L41.75 72.85L41.85 72.8L41.95 73.1L42.1 73.3L41.3 66.1L40.95 66.2L40.85 66.2L38.7 66.65L36 67.35M31.3 64.4L30.7 64.9L29.7 65.9L30.95 66L32.55 66.2L31.35 64.5L31.3 64.4M36.2 68.65L36.25 69L36.85 73.2L38.45 70.85L37.7 70.25L36.2 68.65M37 74.2L37.05 74.6L37.1 74.9Q37.9 75.3 38.85 76L39.8 76.7Q40.75 75.35 41.3 73.85L41.95 74.05Q41.3 75.7 40.25 77.1L41.05 77.75L42.85 79.35L42.15 73.65L41.7 73.9L41.55 73.65L39.9 74L37.6 74.2L37 74.2M37.6 73.55L39.8 73.4L41.05 73.1L40 72.1L39 71.25L37.4 73.55L37.6 73.55M35.1 65.45L34.65 61L34.45 64.2L33.85 73.05L33.3 79.75L35.25 79.75L37.1 79.75L36.1 72.85L35.1 65.45M38.45 76.5L37.2 75.7L37.8 79.75L38.3 79.75L37.8 79.4L39.4 77.25L38.45 76.5M38.4 79.75L39.1 79.75L42.4 79.75L40.65 78.25L39.9 77.65L38.4 79.75M28.7 75.75L27.8 74.35L27.05 79.05L29.25 77.05L29.5 76.85L28.7 75.75M25.65 84.3L25.9 84.05L25.65 84.05L25.65 84.3M26.55 84.3L28.6 84.2L28.3 84.1L26.75 84.05L26.55 84.3M28.5 91.5L27.7 95.75L28.9 95.7L30.6 95.75L30.55 96.4L29.6 96.35L26.9 100.3L26.3 103.2L26.45 103.6L28 106.45L27.4 106.75L26.05 104.2L27.95 106.75L27.95 106.95L28.4 105.4L30.55 96.4L30.85 95.25Q31.85 90.2 32.1 85.3L30.25 95.5L28.85 92.35L28.5 91.5M27.2 98.75L28.8 96.35L27.6 96.4L27.6 96.5L27.2 98.75M27.75 91.8L25.05 95.95L27.05 95.75L27.75 91.8M38.75 87.75L40.1 94.2L40.45 93.2L41.35 90.5L41.15 90.3L38.9 87.95L38.75 87.75M40.45 95.95L40.55 96.35L40.55 95.25L42.85 95.55L42.35 93.4L41.85 91.2L41.05 93.4L40.45 95.15L40.3 95.05L40.35 95.45L40.45 95.95M40.55 96.35L42.05 98.45L43.95 100.85L43 96.25L40.45 95.95M44.5 80.45L44.6 80.7L44.35 80.45L44.3 80.55L44.5 80.45M42.7 91.95L43 93.25L43.55 95.6L44.75 95.65L45.55 95.6L45.55 96.25L44.75 96.3L43.65 96.3L44.75 101.3L44.8 101.5L45.05 99.55L45.4 96.45L45.95 96.5L45.55 94.6L45.1 94.85L43.5 92.8L42.7 91.95M44.45 107.9L44.65 107.85L45.7 107.75L44.95 105.1L44.65 106.75L44.45 107.9M43.95 109.1L46.05 110.9L46.85 111.5L46.2 109.45L45.85 108.4L44.7 108.55L44.25 108.6L44.1 109.1L43.95 109.1M43.5 108.85L43.55 108.65L43.45 108.65L43.5 108.85M48.8 108.1L46.9 108.3L46.55 108.35L46.8 109.25L47.35 110.9L48.3 108.2L48.95 108.4L47.65 111.85L47.75 112.1L48.95 112.85L51.35 114.25Q48.9 108.35 47.1 101.3L46 96.8L45.7 99.6L45.35 102.5L46.9 104.55L48.55 107.1L47.95 107.4L46.4 104.95L45.2 103.5L46.35 107.7L46.8 107.65L48.75 107.45L48.8 108.1M45.65 111.45L43.75 109.8L44.95 115.1L45.2 115.1L46.75 112.25L45.65 111.45M46 115.05L48.05 114.95L47.25 112.7L46 115.05M48.1 113.1L48.75 114.85L50.95 114.75L48.6 113.4L48.1 113.1M42.1 123.25L40.15 121.7L40.4 121.4L39.65 121.4L37.4 123L38.95 124.45L39.4 124.85L40.3 125L40 124.45Q40.65 124 41.8 123.4L42.1 123.25M42.75 122.9L44.15 122.15L45.7 121.4L40.85 121.4L42.75 122.9M43.25 123.35L43.75 123.75L46.9 126.55L47.1 126.6L49.7 127.55L47.3 123L47.9 122.7L51.15 128.95L54.5 135.75L57.35 141.8L57.55 142.25L59.35 145.95Q59.9 144.4 60.9 142.75L61.2 142.25L57.35 141.8L57.35 141.1L61.6 141.7L62.05 141.05L61.25 139.45L61.15 139.25L60.3 139.4L56.8 140.35L56.6 139.7L60.75 138.6L60.85 138.6L57.9 133.15L57.85 133.1L57.6 132.95L57.4 133.45Q56.6 135.7 56.3 137.7L55.6 137.55Q55.95 135.55 56.8 133.2L57 132.65Q54.5 131.4 52 130.55L52.2 129.9Q54.75 130.8 57.25 132.05L57.3 132L56.55 130.7L55.7 129.3L53.65 129.4L51.7 129.6L51.6 128.95L53.6 128.75L55.35 128.6L53.4 125.35L52.15 128.2L51.55 127.9L52.85 125L52.9 124.9L51.25 124.1L48.4 122.9L48.65 122.3L51.55 123.5L52.65 124.05L51.85 122.8L52.4 122.4L53.3 123.85L53.9 122.1L53.35 122.1L48 121.7L46.65 121.5L46.7 121.7L44.45 122.75L43.25 123.35M51.55 114.7L51.45 114.35L51.25 114.75L51.55 114.7M55.2 122.35L54.7 122.8L54.5 122.45L53.7 124.55L53.75 124.6L54.9 125.2L58.05 127.1L57.65 127.65L54.6 125.75L54.4 125.65L56.1 128.6L56.3 128.55L58.8 128.45L58.8 128.9L59.35 129.2Q58.6 130.5 58 131.95L58.45 132.65Q61.25 134.1 63.5 135.65L63.15 136.25L59 133.75L61.55 138.5L65.15 137.75L65.4 138.3Q64.05 139.5 62.9 141L62.8 141.1L63.3 142.15L66.65 143.25L71.15 145.15L70.85 145.8L66.45 143.9L63.7 142.95L65.55 147.1L67.35 147.05L73.2 147.3L73.15 148L69.6 143.15L65.4 137.6L61.25 131.6L57.55 125.85L54.65 121.05Q54.8 121.9 55.2 122.35M56.5 129.2L57.15 130.4L57.6 131.2L58.6 129.1L56.5 129.2M51.45 131L50.55 129.25L50.1 128.35L46.85 127.25L43.55 126.3L40.3 125.65L40.75 126.05L43 126.5Q45.9 127.25 48.4 128.7Q49.75 129.5 50.8 130.4L51.45 131M43.35 124.25L42.65 123.7L42.1 123.95L40.4 125L43.75 125.65L45.45 126.1L43.35 124.25M60.1 147.5L60.05 147.55L64.8 147.1L62.85 142.65L61.9 142.4L60.85 144.15Q60.15 145.55 59.75 146.8L60.1 147.5M61.85 139.15L62.5 140.45L64.1 138.65L61.8 139.1L61.85 139.15M62.4 141.7L62.3 141.85L62.5 141.9L62.4 141.7M25.65 101.95L25.85 102.25L25.95 101.55L25.65 101.95M24.7 106.85L25.6 103.3L25.25 102.5Q23.15 105.05 20.75 107.2L22.4 107L24.7 106.85M25.1 108.1L25.7 107.5L25.25 107.5L25.1 108.1M22.45 107.65L20.1 107.95L20.05 107.5L19.8 108.4L22.65 110.6L24.1 109.1L24.55 107.55L22.45 107.65M23.1 111.1L23.35 111.4L23.65 110.5L23.1 111.1M26.05 104.2L25.45 106.85L27.4 106.75M26.65 107.45L24.75 109.4L23.85 112.05L25.65 114.85L27.8 107.45L26.65 107.45M22.25 112L17.75 116.45L17.85 116.45L21.6 116.2L23.15 112.2L22.65 111.6L22.25 112M20.6 121.7L17.55 122.35L18.05 122.5L16.45 126.65L17.95 125.5Q20 124.05 21.5 122.4L22 122.85L18.35 126.05L16.7 127.25Q18.2 128.6 20 129.5L19.7 130.1L14.6 131.15L14.5 131.35L13.3 134.35Q16.15 132.6 19.25 131.2L19.5 131.8Q16.05 133.35 12.9 135.4L12.8 135.55L16.55 139.4L16.45 139.5L16.5 139.5L16.55 140.2L15.75 140.25L16 140.6L9.25 144.55L13.45 148.2L17.15 139.55L18.95 134.7L18.85 134.65L19.15 134.2L20.5 130.25L23.55 121.3L22.6 121.3L20.6 121.7M34.85 121.35Q33.55 122 32.35 123.1L32.2 123.25L32.35 123.35L34.2 124.75L34.65 124.7L36.45 123L34.9 121.4L34.95 121.35L34.85 121.35M38.4 121.4L35.75 121.35L36.95 122.55L36.95 122.5L38.4 121.4M22.2 111.1Q20.9 109.8 19.55 109.05L17.05 116.15L21.8 111.5L22.2 111.1M20.1 107.25L20.4 107.25L20.2 107L20.1 107.25M17.2 116.45L17.05 116.25L16.95 116.45L17.2 116.45M13.7 116.6L13.6 117L15.15 116.9L13.7 116.6M14 121.65L14 121.95L14.45 122.15L16.85 121.8L18.05 121.55L17.95 121.25L14 121.2L14 121.65M19.45 121.25L18.65 121.25L18.65 121.4L19.45 121.25M15.55 127Q14.25 125.7 13.6 124.45L10.6 130.4L13.95 128.2L15.45 127.3L15.55 127M16.15 127.6L15.95 127.75L14.85 130.45L18.9 129.65Q17.45 128.8 16.15 127.6M14.3 128.8L11.3 130.7L14.15 130.5L15 128.35L14.3 128.8M10.4 130.7L10.5 130.7L10.45 130.65L10.4 130.7M5.5 139.6L5.4 139.8L5.65 139.8L5.5 139.6M7.4 139.8L10.4 139.8L11.9 136L5.9 139.8L7.4 139.8M8.15 145.1Q4.5 146.95 1.15 149.1L3.8 148.9L7.3 148.6L7.55 148.6L8.55 148.6L11.5 148.7L13.15 148.85Q11.2 146.9 8.85 145.1L7.3 148.6L6.7 148.3L8.15 145.1M11.1 139.75L15.8 139.55L12.55 136.25L11.1 139.75M18.6 144.15L17.45 144.85L15.9 145.45L15.75 144.75L17.1 144.25L18.3 143.55Q18.9 143.15 19.8 143.15L20.5 143.2Q21.1 139.8 22.15 136.55L24.35 130.15L24.95 130.35L22.75 136.95Q21.65 140.25 21.15 143.65L21.1 144.05L20.7 143.95L19.8 143.8Q19.1 143.8 18.6 144.15M10.8 140.45L9.45 143.65L15.3 140.25L10.8 140.45M5.75 139.1L11.7 135.35L9.15 132.95L5.75 139.1M39.15 125.55L35.8 125.35L35.05 125.35L35.15 125.45L34.8 125.85L37 125.75L39.55 125.9L39.15 125.55M35.8 124.65L38.35 124.75L36.9 123.4L35.6 124.65L35.8 124.65M33.95 125.4L28.3 126.4Q24.75 127.45 21.4 129.7L21.15 130.5L20.5 132.5Q21.8 130.9 23.55 129.7Q26.45 127.75 29.9 126.75L34.6 125.9L33.95 125.4M31.95 123.85L31.75 123.75Q31.05 124.4 30.5 125.2L33.15 124.8L31.95 123.85M73.15 148L67.35 147.7L58.45 148.5L58.3 147.8L59.45 147.65L59.2 147.15L59 147.1L59.05 146.9L57 142.55L53.9 136.05L52.45 133L52.35 133.05L50.35 130.95Q49.35 130.05 48 129.25Q45.65 127.85 42.85 127.15L40.4 126.65L37 126.45Q33.45 126.45 30.1 127.4Q26.7 128.4 23.95 130.3Q21.4 132 19.75 134.5L17.75 139.8L14 148.6L13.7 148.45L13.3 148.85L14.35 148.85L15.1 148.85L15.15 149.5L14.35 149.5L11.4 149.4L8.55 149.25L7.6 149.3L3.9 149.6L0.05 149.8L0.05 149.35L0 149.3L0.05 149.15L0.05 149.1L0.1 149.1Q1.95 144.7 4.25 140.5L4.6 139.9L4.6 139.8L4.65 139.8L8.65 132.5L9 131.9L13.4 123.2L13.6 122.85L13.15 122.85L13.15 122.2L13.85 122.2L13.3 122.1L13.35 121.65L13.1 119.8L12.8 117.8Q12.8 117.05 13.1 116.3L13.6 116.5L13.75 115.9L16.25 116.35L19.7 106.35L22.8 95.35L25.25 84.85L24.95 84.8L24.95 84.5L24.85 83.5L24.65 82.25L24.55 81.85L24.05 81.85L24.05 81.2L24.35 81.2L24.35 81.1L24.15 80.65L24.05 80.65L23.95 80.55L23.85 80.35L23.95 80.1L24.15 80L24.35 80L26.05 79.9L26.25 79.75L27.55 71.4L28.1 67.05L28.5 63.1L28.6 61.45L28.5 61.35L28.65 61.2Q29.1 54.6 29.05 48.25L28.9 38.35L28.75 38.35L28.8 37.7L28.9 37.7L28.75 33.6Q28.5 27.1 28.4 20.35L28.15 20.3L27.9 20.1L27.45 20.1L27.4 19.05L27.3 17.9Q27.3 17.25 27.45 16.7Q27.6 16.1 28.1 15.65L29.05 15.1L28.85 13.55Q28.85 12.5 29.2 11.5L29.45 11L29.85 10.1Q30.4 9.3 31.7 9.2L31.65 7.7L31.45 5.9L31.4 4.85L31.4 3.85L31.4 3.65L31.2 1.95L31.1 1.85L31.15 1.85L31.1 1.65L31.15 1.6L30.8 1.55L31.1 0.75L31.7 0.3L33.3 0L34.8 0.1L35.9 0.3L37.9 0.7L39.85 0.9L41.55 0.85L42.45 0.9L42.45 1.15L42.55 1.15L42.85 6.45L42.85 6.5L42.95 6.5L42.95 6.6L43.05 6.9L42.65 7.05L42.25 7.4L42.25 7.15L41.75 7.15L41.05 7.1L40.45 7.1L32.3 7.6L32.3 7.65L32.35 9.2L32.95 9.25Q34.75 9.6 35.75 10.65Q36.65 11.8 37.15 13.2L38 15.5L38.6 15.8Q39.4 16.25 39.8 16.8L40.1 17.9L40 18.8L39.85 19.85L39.8 19.85L39.55 20.25L39.2 20.45L39.4 25.35L39.5 25.45L39.4 25.6L39.65 31.35L40.45 46.6L41.7 63.2Q42.45 71.5 43.65 79.75L44.7 79.75L44.7 80.45L44.5 80.45M44.6 80.7L44.8 81.05Q44.5 81.25 44.25 82.05L44.05 83.6L44.15 84.35L43.75 84.85L43.5 84.45L43.45 84.45L43.45 84.9L43.3 84.9L42.45 84.9L42.45 84.95L42.2 84.9L39.5 84.75L39.4 84.85L39.3 84.75L39.1 84.7L35.05 84.5L34.9 84.8L34.35 84.5L33.65 84.5L30.6 84.75L30.3 84.95L30.2 84.8L29.8 84.8L25.95 84.95L25.85 85L23.45 95.5L23.05 97.15L23.45 96.95L24.85 100.2L25.35 101.25L26.3 100L26.95 96.45L24.85 96.65L24.8 96.25L24.3 95.9L27.95 90.25L27.4 89.1L26.15 86.2L26.75 85.95L28 88.85L28.2 89.25L28.8 85.75L29.45 85.85L29 88.55L30.7 85.65L31.3 85.95L28.7 90.3L29.45 92.1L30.85 95.25M32.1 85.3L32.75 85.35Q32.55 90.3 31.5 95.4L29.05 105.6L26.15 115.55L25.65 115.4L25.25 115.55Q24.6 114.1 23.6 112.8L22.35 116.1L22.75 116.05L27.65 115.6L29.45 115.55L36.2 115.65L44.3 115.15L42.15 106L39.95 96.55L39.9 96.45L39.7 95.6L37.85 86.85L37.55 86.45L37.75 86.35L37.6 85.65L38.3 85.5L38.5 86.55L39.4 87.45L41.45 89.65L40.2 85.45L40.85 85.3L41.95 88.9L42.35 87.55L43.05 85.1L43.7 85.25L43 87.75L42.25 90.05L42.4 90.65L44 92.4L45.5 94.25Q44.5 89.85 43.8 85.25L44.45 85.15Q45.8 93.6 47.8 101.2Q49.65 108.6 52.25 114.65L53.9 114.55L53.9 114.65L54.25 114.6L54.25 115.15L54.6 115.15L54.6 115.25L54.5 116.85L54.45 118.75Q54.45 119.9 54.6 120.9L54.65 121L55.2 120.65L58.1 125.45L61.8 131.2L65.95 137.25L70.15 142.7Q72.15 145.25 73.9 147Q75.6 148.8 76.8 149.4L76.5 150Q75.15 149.3 73.4 147.5L73.2 147.3M35.9 35.2L37.9 33.25L34 33.15L34 33.9L34.25 33.6L35.7 35.05L35.9 35.2M41.2 65.4L41.05 63.25L40.9 61.65L38.9 64.35L38.8 64.45L40.95 65.5L41.2 65.4M29.75 84.15L29.35 84.1L29.35 84.2L29.75 84.15M20.35 106.55Q22.85 104.45 24.9 101.8L24.25 100.5L22.95 97.45L20.35 106.55M28.1 125.75L27.1 124.85L26.4 124.25L23.9 126.7L23.45 126.2L25.9 123.8L25.4 123.3L24.45 122.45L24.35 122.35L24.3 122.2L24.3 122.15L24.4 121.9L24.65 121.8L24.75 121.85L24.8 121.9L24.85 121.9L24.9 121.95L25 122L25.35 122.35L26.35 123.35L28.35 121.3L23.6 121.3L24.2 121.55L21.75 128.7Q24.85 126.75 28.1 125.75M29.6 125.35L31.2 123.35L29.2 121.9L29.6 121.4L31.65 122.85L31.9 122.6Q32.7 121.9 33.55 121.35L29.05 121.3L29.15 121.4L26.85 123.75L27.85 124.65L28.95 125.55L29.6 125.35M13.95 123.7Q14.5 124.95 15.8 126.35L17.35 122.4L16.95 122.45L14.3 122.8L14 123.45L13.95 123.7M10.05 131.35L9.55 132.2L9.5 132.35L12.25 135L12.4 134.95L13.85 131.2L10.7 131.35L10.05 131.35M4.2 142.1Q2.55 145.2 1.15 148.35Q4.5 146.25 7.95 144.45L4.2 142.1M43.55 108L43.6 108.25L43.6 107.95L43.75 107.95L44 106.65L44.5 103.4L44.25 102.25L44 101.9L41.55 98.9L41 98.2L42.8 105.85L43.35 108.05L43.45 108L43.55 108M4.5 141.5Q6.45 142.45 8.55 144.05L10.1 140.45L7.4 140.5L5.05 140.5L4.85 140.8L4.5 141.5" />
</g>
<g id="PathID_4" transform="matrix(1.10514, 0, -0.0962601, 1.10094, 232.8, 76.25)" opacity="1">
</g>
<g id="PathID_5" transform="matrix(1.2128, 0, 0, 1.2128, 97.55, 144.7)" opacity="1">
<path style="fill:#EA9A35;fill-opacity:1" d="M35.3 0L25.95 0L25.95 -16.5L13.2 -16.5L13.2 0L3.85 0L3.85 -37.25L13.2 -37.25L13.2 -23.6L25.95 -23.6L25.95 -37.25L35.3 -37.25L35.3 0" />
</g>
<g id="PathID_6" transform="matrix(1.2128, 0, 0, 1.2128, 97.55, 144.7)" opacity="1">
</g>
<g id="PathID_7" transform="matrix(1.2128, 0, 0, 1.2128, 144.95, 144.7)" opacity="1">
<path style="fill:#EA9A35;fill-opacity:1" d="M37.75 -18.6Q37.75 -9.55 32.9 -4.35Q28.1 0.8 19.7 0.8Q11.25 0.8 6.45 -4.4Q1.7 -9.65 1.7 -18.6Q1.7 -27.6 6.45 -32.8Q11.25 -38.05 19.7 -38.05Q28.1 -38.05 32.9 -32.85Q37.75 -27.65 37.75 -18.6M28.1 -18.6Q28.1 -21.95 27.4 -24.25Q26.7 -26.6 25.55 -28.1Q24.35 -29.65 22.85 -30.3Q21.35 -31 19.7 -31Q18 -31 16.6 -30.35Q15.2 -29.75 13.9 -28.15Q12.75 -26.7 12.05 -24.3Q11.35 -21.9 11.35 -18.6Q11.35 -15.15 12 -12.9Q12.65 -10.65 13.85 -9.1Q15.05 -7.55 16.55 -6.9Q18.1 -6.25 19.7 -6.25Q21.35 -6.25 22.9 -6.95Q24.45 -7.65 25.6 -9.15Q26.8 -10.8 27.45 -12.95Q28.1 -15.1 28.1 -18.6" />
</g>
<g id="PathID_8" transform="matrix(1.2128, 0, 0, 1.2128, 144.95, 144.7)" opacity="1">
</g>
<g id="PathID_9" transform="matrix(1.2128, 0, 0, 1.2128, 192.7, 144.7)" opacity="1">
<path style="fill:#EA9A35;fill-opacity:1" d="M11 0L11 -30.15L0 -30.15L0 -37.25L31.35 -37.25L31.35 -30.15L20.35 -30.15L20.35 0L11 0" />
</g>
<g id="PathID_10" transform="matrix(1.2128, 0, 0, 1.2128, 192.7, 144.7)" opacity="1">
</g>
<g id="PathID_11" transform="matrix(1.2128, 0, 0, 1.2128, 230.7, 144.7)" opacity="1">
<path style="fill:#EA9A35;fill-opacity:1" d="M3.85 0L3.85 -37.25L29.05 -37.25L29.05 -30.15L13.2 -30.15L13.2 -23.6L27.8 -23.6L27.8 -16.5L13.2 -16.5L13.2 -7.1L29.05 -7.1L29.05 0L3.85 0" />
</g>
<g id="PathID_12" transform="matrix(1.2128, 0, 0, 1.2128, 230.7, 144.7)" opacity="1">
</g>
<g id="PathID_13" transform="matrix(1.2128, 0, 0, 1.2128, 268.85, 144.7)" opacity="1">
<path style="fill:#EA9A35;fill-opacity:1" d="M28.7 0L3.85 0L3.85 -37.25L13.2 -37.25L13.2 -7.1L28.7 -7.1L28.7 0" />
</g>
<g id="PathID_14" transform="matrix(1.2128, 0, 0, 1.2128, 268.85, 144.7)" opacity="1">
</g>
<g id="PathID_15" transform="matrix(1.2128, 0, 0, 1.2128, 304.35, 144.7)" opacity="1">
<path style="fill:#EA9A35;fill-opacity:1" d="M19.9 0.75Q11.55 0.75 6.6 -4.3Q1.7 -9.35 1.7 -18.55Q1.7 -27.4 6.6 -32.65Q11.55 -37.95 19.95 -37.95Q22.15 -37.95 23.9 -37.7Q25.7 -37.45 27.35 -37Q28.6 -36.6 30.1 -35.95L32.55 -34.85L32.55 -26L31.6 -26L29.85 -27.35Q28.85 -28.2 27.55 -29Q26.25 -29.75 24.7 -30.3Q23.15 -30.9 21.45 -30.9Q19.4 -30.9 17.7 -30.25Q16.05 -29.6 14.5 -28.05Q13.1 -26.6 12.2 -24.2Q11.35 -21.8 11.35 -18.5Q11.35 -15.05 12.25 -12.7Q13.2 -10.35 14.7 -8.9Q16.15 -7.5 17.9 -6.9Q19.7 -6.3 21.5 -6.3Q23.35 -6.3 25 -6.9Q26.7 -7.5 27.85 -8.2Q29.1 -9 30.05 -9.75L31.7 -11.2L32.55 -11.2L32.55 -2.45L30.15 -1.35Q28.8 -0.75 27.4 -0.3Q25.65 0.2 24.1 0.45Q22.6 0.75 19.9 0.75" />
</g>
<g id="PathID_16" transform="matrix(1.2128, 0, 0, 1.2128, 304.35, 144.7)" opacity="1">
</g>
<g id="PathID_17" transform="matrix(1.2128, 0, 0, 1.2128, 345.85, 144.7)" opacity="1">
<path style="fill:#EA9A35;fill-opacity:1" d="M37.75 -18.6Q37.75 -9.55 32.9 -4.35Q28.1 0.8 19.7 0.8Q11.25 0.8 6.45 -4.4Q1.7 -9.65 1.7 -18.6Q1.7 -27.6 6.45 -32.8Q11.25 -38.05 19.7 -38.05Q28.1 -38.05 32.9 -32.85Q37.75 -27.65 37.75 -18.6M28.1 -18.6Q28.1 -21.95 27.4 -24.25Q26.7 -26.6 25.55 -28.1Q24.35 -29.65 22.85 -30.3Q21.35 -31 19.7 -31Q18 -31 16.6 -30.35Q15.2 -29.75 13.9 -28.15Q12.75 -26.7 12.05 -24.3Q11.35 -21.9 11.35 -18.6Q11.35 -15.15 12 -12.9Q12.65 -10.65 13.85 -9.1Q15.05 -7.55 16.55 -6.9Q18.1 -6.25 19.7 -6.25Q21.35 -6.25 22.9 -6.95Q24.45 -7.65 25.6 -9.15Q26.8 -10.8 27.45 -12.95Q28.1 -15.1 28.1 -18.6" />
</g>
<g id="PathID_18" transform="matrix(1.2128, 0, 0, 1.2128, 345.85, 144.7)" opacity="1">
</g>
<g id="PathID_19" transform="matrix(1.2128, 0, 0, 1.2128, 393.6, 144.7)" opacity="1">
<path style="fill:#EA9A35;fill-opacity:1" d="M32.5 -25.5Q32.5 -22.9 31.65 -20.55Q30.85 -18.2 29.3 -16.6Q28.35 -15.65 27.2 -14.8Q26.05 -14 24.7 -13.4Q23.3 -12.85 21.7 -12.5Q20.1 -12.2 18.1 -12.2L13.2 -12.2L13.2 0L3.85 0L3.85 -37.25L18.3 -37.25Q21.5 -37.25 23.85 -36.65Q26.2 -36.05 28.1 -34.8Q30.2 -33.4 31.35 -31.05Q32.5 -28.7 32.5 -25.5M22.85 -25.25Q22.85 -26.85 22.1 -27.95Q21.35 -29.1 20.3 -29.55Q18.95 -30.1 17.75 -30.2Q16.55 -30.3 14.5 -30.3L13.2 -30.3L13.2 -19.15L13.8 -19.15L16.3 -19.15Q17.5 -19.2 18.35 -19.35Q19.1 -19.45 19.9 -19.8Q20.75 -20.2 21.2 -20.65Q22.15 -21.55 22.5 -22.55Q22.85 -23.55 22.85 -25.25" />
</g>
<g id="PathID_20" transform="matrix(1.2128, 0, 0, 1.2128, 393.6, 144.7)" opacity="1">
</g>
<g id="PathID_21" transform="matrix(0.640571, 0, 0, 0.640571, 212.7, 187.35)" opacity="1">
<path style="fill:#EA9A35;fill-opacity:1" d="M32.5 -25.5Q32.5 -22.9 31.65 -20.55Q30.85 -18.2 29.3 -16.6Q28.35 -15.65 27.2 -14.8Q26.05 -14 24.7 -13.4Q23.3 -12.85 21.7 -12.5Q20.1 -12.2 18.1 -12.2L13.2 -12.2L13.2 0L3.85 0L3.85 -37.25L18.3 -37.25Q21.5 -37.25 23.85 -36.65Q26.2 -36.05 28.1 -34.8Q30.2 -33.4 31.35 -31.05Q32.5 -28.7 32.5 -25.5M22.85 -25.25Q22.85 -26.85 22.1 -27.95Q21.35 -29.1 20.3 -29.55Q18.95 -30.1 17.75 -30.2Q16.55 -30.3 14.5 -30.3L13.2 -30.3L13.2 -19.15L13.8 -19.15L16.3 -19.15Q17.5 -19.2 18.35 -19.35Q19.1 -19.45 19.9 -19.8Q20.75 -20.2 21.2 -20.65Q22.15 -21.55 22.5 -22.55Q22.85 -23.55 22.85 -25.25" />
</g>
<g id="PathID_22" transform="matrix(0.640571, 0, 0, 0.640571, 212.7, 187.35)" opacity="1">
</g>
<g id="PathID_23" transform="matrix(0.640571, 0, 0, 0.640571, 234.2, 187.35)" opacity="1">
<path style="fill:#EA9A35;fill-opacity:1" d="M-0.15 0L12.4 -37.25L22.6 -37.25L35.2 0L25.55 0L23.25 -7.55L11.55 -7.55L9.2 0L-0.15 0M21.2 -14.35L17.4 -26.6L13.6 -14.35L21.2 -14.35" />
</g>
<g id="PathID_24" transform="matrix(0.640571, 0, 0, 0.640571, 234.2, 187.35)" opacity="1">
</g>
<g id="PathID_25" transform="matrix(0.640571, 0, 0, 0.640571, 256.65, 187.35)" opacity="1">
<path style="fill:#EA9A35;fill-opacity:1" d="M38.3 0L26.85 0L16.5 -13.65L13.2 -13.65L13.2 0L3.85 0L3.85 -37.25L18.8 -37.25Q21.9 -37.25 24.2 -36.85Q26.5 -36.45 28.45 -35.2Q30.45 -33.95 31.65 -31.95Q32.85 -30 32.85 -27Q32.85 -22.7 30.9 -20.05Q28.95 -17.4 25.75 -15.8L38.3 0M23.2 -25.85Q23.2 -27.25 22.65 -28.25Q22.1 -29.3 20.85 -29.85Q20 -30.2 18.9 -30.3Q17.85 -30.45 16.3 -30.45L13.2 -30.45L13.2 -20.35L15.85 -20.35Q17.75 -20.35 19.1 -20.55Q20.45 -20.8 21.4 -21.6Q22.3 -22.3 22.75 -23.25Q23.2 -24.25 23.2 -25.85" />
</g>
<g id="PathID_26" transform="matrix(0.640571, 0, 0, 0.640571, 256.65, 187.35)" opacity="1">
</g>
<g id="PathID_27" transform="matrix(0.640571, 0, 0, 0.640571, 280.3, 187.35)" opacity="1">
<path style="fill:#EA9A35;fill-opacity:1" d="M22.4 0L2.35 0L2.35 -6.5L7.7 -6.5L7.7 -30.75L2.35 -30.75L2.35 -37.25L22.4 -37.25L22.4 -30.75L17.05 -30.75L17.05 -6.5L22.4 -6.5L22.4 0" />
</g>
<g id="PathID_28" transform="matrix(0.640571, 0, 0, 0.640571, 280.3, 187.35)" opacity="1">
</g>
<g id="PathID_29" transform="matrix(0.640571, 0, 0, 0.640571, 296.15, 187.35)" opacity="1">
<path style="fill:#EA9A35;fill-opacity:1" d="M15.35 0.7Q11.1 0.7 7.85 -0.1Q4.6 -0.95 1.85 -2.15L1.85 -11.05L2.7 -11.05Q5.5 -8.65 8.85 -7.35Q12.25 -6.1 15.4 -6.1Q16.2 -6.1 17.5 -6.25Q18.85 -6.45 19.65 -6.8Q20.6 -7.25 21.3 -8Q22 -8.75 22 -10Q22 -11.4 20.85 -12.25Q19.75 -13.15 18.25 -13.55Q16.35 -14.05 14.15 -14.5Q12 -14.95 10.1 -15.6Q5.8 -17.15 3.9 -19.7Q2.05 -22.3 2.05 -26.15Q2.05 -31.4 6.45 -34.65Q10.9 -37.9 17.55 -37.9Q20.9 -37.9 24.15 -37.2Q27.45 -36.55 30.1 -35.4L30.1 -26.9L29.25 -26.9Q27.15 -28.65 24.15 -29.85Q21.15 -31.1 18 -31.1Q16.75 -31.1 15.75 -30.9Q14.8 -30.75 13.75 -30.25Q12.85 -29.85 12.2 -29.05Q11.6 -28.25 11.6 -27.3Q11.6 -25.85 12.6 -25Q13.6 -24.2 16.5 -23.5L20.15 -22.7Q21.9 -22.3 23.85 -21.6Q27.75 -20.2 29.65 -17.8Q31.55 -15.45 31.55 -11.6Q31.55 -6.05 27.15 -2.65Q22.8 0.7 15.35 0.7" />
</g>
<g id="PathID_30" transform="matrix(0.640571, 0, 0, 0.640571, 296.15, 187.35)" opacity="1">
</g>
<g id="PathID_31" transform="matrix(0.547394, 0, 0, 0.547394, 220.65, 224.7)" opacity="1">
<path style="fill:#EA9A35;fill-opacity:1" d="M28.4 -21.5L25.8 -17.7L17.95 -23.05L18.25 -14.35L13.25 -14.35L13.4 -22.8L5.75 -17.7L3.2 -21.55L11.8 -26.6L3.25 -31.75L5.75 -35.6L13.4 -30.4L13.25 -38.9L18.25 -38.9L18.05 -30.4L25.8 -35.55L28.4 -31.7L19.7 -26.65L28.4 -21.5" />
</g>
<g id="PathID_32" transform="matrix(0.547394, 0, 0, 0.547394, 220.65, 224.7)" opacity="1">
</g>
<g id="PathID_33" transform="matrix(0.547394, 0, 0, 0.547394, 238.4, 224.7)" opacity="1">
<path style="fill:#EA9A35;fill-opacity:1" d="M28.4 -21.5L25.8 -17.7L17.95 -23.05L18.25 -14.35L13.25 -14.35L13.4 -22.8L5.75 -17.7L3.2 -21.55L11.8 -26.6L3.25 -31.75L5.75 -35.6L13.4 -30.4L13.25 -38.9L18.25 -38.9L18.05 -30.4L25.8 -35.55L28.4 -31.7L19.7 -26.65L28.4 -21.5" />
</g>
<g id="PathID_34" transform="matrix(0.547394, 0, 0, 0.547394, 238.4, 224.7)" opacity="1">
</g>
<g id="PathID_35" transform="matrix(0.547394, 0, 0, 0.547394, 256.15, 224.7)" opacity="1">
<path style="fill:#EA9A35;fill-opacity:1" d="M28.4 -21.5L25.8 -17.7L17.95 -23.05L18.25 -14.35L13.25 -14.35L13.4 -22.8L5.75 -17.7L3.2 -21.55L11.8 -26.6L3.25 -31.75L5.75 -35.6L13.4 -30.4L13.25 -38.9L18.25 -38.9L18.05 -30.4L25.8 -35.55L28.4 -31.7L19.7 -26.65L28.4 -21.5" />
</g>
<g id="PathID_36" transform="matrix(0.547394, 0, 0, 0.547394, 256.15, 224.7)" opacity="1">
</g>
<g id="PathID_37" transform="matrix(0.547394, 0, 0, 0.547394, 273.9, 224.7)" opacity="1">
<path style="fill:#EA9A35;fill-opacity:1" d="M28.4 -21.5L25.8 -17.7L17.95 -23.05L18.25 -14.35L13.25 -14.35L13.4 -22.8L5.75 -17.7L3.2 -21.55L11.8 -26.6L3.25 -31.75L5.75 -35.6L13.4 -30.4L13.25 -38.9L18.25 -38.9L18.05 -30.4L25.8 -35.55L28.4 -31.7L19.7 -26.65L28.4 -21.5" />
</g>
<g id="PathID_38" transform="matrix(0.547394, 0, 0, 0.547394, 273.9, 224.7)" opacity="1">
</g>
<g id="PathID_39" transform="matrix(0.547394, 0, 0, 0.547394, 291.65, 224.7)" opacity="1">
<path style="fill:#EA9A35;fill-opacity:1" d="M28.4 -21.5L25.8 -17.7L17.95 -23.05L18.25 -14.35L13.25 -14.35L13.4 -22.8L5.75 -17.7L3.2 -21.55L11.8 -26.6L3.25 -31.75L5.75 -35.6L13.4 -30.4L13.25 -38.9L18.25 -38.9L18.05 -30.4L25.8 -35.55L28.4 -31.7L19.7 -26.65L28.4 -21.5" />
</g>
<g id="PathID_40" transform="matrix(0.547394, 0, 0, 0.547394, 291.65, 224.7)" opacity="1">
</g>
</svg>
